<?xml version="1.0" encoding="utf-8"?>
<!-- Generator: Adobe Illustrator 19.1.0, SVG Export Plug-In . SVG Version: 6.00 Build 0)  -->
<svg version="1.1" id="Слой_1" xmlns="http://www.w3.org/2000/svg" xmlns:xlink="http://www.w3.org/1999/xlink" x="0px" y="0px"
	 viewBox="0 0 149.2 64.2" style="enable-background:new 0 0 149.2 64.2;" xml:space="preserve">
<style type="text/css">
	.st0{fill:#0A4166;}
	.st1{fill:#FFC900;}
</style>
<g>
	<polygon class="st0" points="136.8,45.6 99.3,59.1 101.3,44.8 131.3,34 	"/>
	<polygon class="st0" points="149.2,24.8 92.2,39.8 86.3,28.2 143.4,13.1 	"/>
	<polygon class="st1" points="149.2,24.9 81.8,18.8 76,5.5 143.4,11.6 	"/>
	<polygon class="st1" points="136.8,45.6 91.9,41.6 86.3,28.2 131.3,32.2 	"/>
	<polyline class="st1" points="121.7,64.2 99.3,59.1 112.2,54.5 121.7,64.2 	"/>
	<polygon class="st0" points="76,5.5 93.9,0 89.5,6.7 	"/>
	<g>
		<path class="st0" d="M13.8,45.3H19l-6.2,8.9l3.7,8.8h-5.2l-2.3-6l-3.8,6H0l6.2-8.8l-3.7-8.9h5.2l2.2,6L13.8,45.3z"/>
		<path class="st0" d="M20.2,45.3h4.5l2.5,8.6l5-8.6h4.5L34.1,63h-4.5l0.7-5.1l0.7-3.6l-0.1,0L25.9,63l-2.7-8.7l-0.1,0l-0.2,3.6
			L22.2,63h-4.5L20.2,45.3z"/>
		<path class="st0" d="M42.5,52.1h7.2l-0.5,4h-7.2l-0.4,2.6h7.8L48.8,63H36.5l2.5-17.7h12.3l-0.6,4.2h-7.8L42.5,52.1z"/>
		<path class="st0" d="M57.1,57.4h-0.8L55.5,63H51l2.5-17.7h7.1c3.6,0,6.2,1.9,5.7,6.1c-0.4,3.3-1.8,4.4-4.3,5.5l4.2,6.1h-5.6
			L57.1,57.4z M59.5,53.5c1.4,0,2.2-1,2.3-2c0.1-1.1-0.4-2-1.7-2h-2.6l-0.6,4H59.5z"/>
		<path class="st0" d="M80.1,59.3c-2.2,3.1-4.7,4-6.9,4c-3.5,0-6.7-2-6.1-6.1l0.8-6.1c0.5-4,4.3-6.1,7.9-6.1c2.2,0,4.7,0.9,5.6,4.1
			l-3.8,1.5c-0.4-1-1.4-1.4-2.5-1.4c-1.3,0-2.5,0.7-2.7,1.9l-0.8,6.1c-0.2,1.2,0.9,1.9,2.2,1.9c1,0,2.2-0.5,2.8-1.6L80.1,59.3z"/>
		<path class="st0" d="M85.3,63h-4.5l2.5-17.7h4.5L86.9,52H92l0.9-6.7h4.5L94.9,63h-4.5l0.9-6.7h-5.1L85.3,63z"/>
	</g>
</g>
</svg>
