<?xml version="1.0" encoding="utf-8"?>
<!-- Generator: Adobe Illustrator 19.1.0, SVG Export Plug-In . SVG Version: 6.00 Build 0)  -->
<svg version="1.1" id="Слой_1" xmlns="http://www.w3.org/2000/svg" xmlns:xlink="http://www.w3.org/1999/xlink" x="0px" y="0px"
	 viewBox="0 0 123 53" style="enable-background:new 0 0 123 53;" xml:space="preserve">
<style type="text/css">
	.st0{fill:#666666;}
	.st1{fill:#CCCCCC;}
</style>
<g>
	<polygon class="st0" points="112.8049,37.6309 81.8778,48.7788 83.5131,36.9856 108.2655,28.0196 	"/>
	<polygon class="st0" points="122.9782,20.442 76.0156,32.8672 71.1607,23.2531 118.2215,10.802 	"/>
	<polygon class="st1" points="123,20.5683 67.4483,15.5202 62.6639,4.5039 118.1853,9.5633 	"/>
	<polygon class="st1" points="112.8027,37.6182 75.791,34.3508 71.1609,23.2543 108.2688,26.5673 	"/>
	<polyline class="st1" points="100.3471,53 81.8797,48.7898 92.4871,44.9546 100.3471,53 	"/>
	<polygon class="st0" points="62.6642,4.5058 77.4514,0 73.8264,5.5211 	"/>
	<g>
		<path class="st0" d="M11.39,37.3628h4.2841l-5.108,7.3163l3.0689,7.2751H9.3509l-1.8743-4.9669l-3.1719,4.9669H0l5.108-7.2751
			l-3.0689-7.3163h4.3047l1.7919,4.9874L11.39,37.3628z"/>
		<path class="st0" d="M16.6414,37.3628h3.6868l2.0597,7.1308l4.0988-7.1308h3.6868l-2.0391,14.5914H24.427l0.5973-4.2043
			l0.6179-2.9471l-0.103-0.0206l-4.1965,7.1721l-2.2091-7.1721l-0.0824,0.0206l-0.1854,2.9471l-0.5767,4.2043h-3.6868
			L16.6414,37.3628z"/>
		<path class="st0" d="M35.0324,43.0098h5.9113l-0.4532,3.2768h-5.9112l-0.3089,2.1847h6.4262l-0.4737,3.4829H30.0686
			l2.0391-14.5914h10.1542l-0.4943,3.4829h-6.4262L35.0324,43.0098z"/>
		<path class="st0" d="M47.081,47.3171h-0.6591l-0.6385,4.6371h-3.7281l2.0391-14.5914h5.8289c3.0071,0,5.1492,1.6075,4.7372,5.0286
			c-0.3707,2.6999-1.5242,3.6067-3.5221,4.5547l3.5015,5.008h-4.5931L47.081,47.3171z M49.0377,44.1433
			c1.1328,0,1.7919-0.845,1.8949-1.69c0.1029-0.8862-0.3296-1.6488-1.4212-1.6488h-2.1627l-0.4737,3.3387H49.0377z"/>
		<path class="st0" d="M66.0288,48.8965c-1.7919,2.5634-3.8928,3.2871-5.7259,3.2871c-2.863,0-5.4993-1.6745-5.0462-5.003
			l0.7002-5.0443c0.4532-3.3077,3.5838-5.0029,6.5086-5.0029c1.7919,0,3.8516,0.7649,4.6549,3.3697l-3.172,1.2198
			c-0.3296-0.8269-1.1946-1.1783-2.0597-1.1783c-1.0504,0.0206-2.1009,0.5995-2.245,1.5918l-0.7003,5.0443
			c-0.1442,0.951,0.7621,1.5506,1.7919,1.5506c0.8445,0,1.7919-0.3928,2.2863-1.3231L66.0288,48.8965z"/>
		<path class="st0" d="M70.3526,51.9542h-3.7074l2.0391-14.5914h3.7073l-0.7826,5.5233h4.2017l0.7827-5.5233h3.7073l-2.039,14.5914
			h-3.7074l0.7621-5.5027h-4.2017L70.3526,51.9542z"/>
	</g>
</g>
</svg>
