<?xml version="1.0" encoding="utf-8"?>
<!-- Generator: Adobe Illustrator 19.1.0, SVG Export Plug-In . SVG Version: 6.00 Build 0)  -->
<svg version="1.1" id="Слой_1" xmlns="http://www.w3.org/2000/svg" xmlns:xlink="http://www.w3.org/1999/xlink" x="0px" y="0px"
	 viewBox="0 0 338.7 299.3" style="enable-background:new 0 0 338.7 299.3;" xml:space="preserve">
<style type="text/css">
	.st0{fill:url(#SVGID_1_);}
	.st1{fill:url(#SVGID_2_);}
</style>
<g>
	<linearGradient id="SVGID_1_" gradientUnits="userSpaceOnUse" x1="3.6583" y1="138.0909" x2="334.7597" y2="138.0909">
		<stop  offset="0" style="stop-color:#FFC900"/>
		<stop  offset="1" style="stop-color:#F9D953"/>
	</linearGradient>
	<polygon class="st0" points="278.8,210.6 253.9,150 219.3,146.9 332.7,116.9 334.8,117.1 334.5,116.5 334.6,116.4 333,113.2 
		308.3,56.8 64.7,34.6 64.9,34.6 84.8,4.3 3.7,29 3.7,29 3.7,29 3.7,29 3.7,29 29.9,89.4 164.5,101.7 50.3,131.9 50.3,131.9 
		50.3,131.9 75.7,192.7 141.9,198.6 118.1,207.2 109.1,271.8 278.8,210.7 278.8,210.6 	"/>
	<linearGradient id="SVGID_2_" gradientUnits="userSpaceOnUse" x1="109.1072" y1="272.937" x2="210.4493" y2="272.937">
		<stop  offset="0" style="stop-color:#FFC900"/>
		<stop  offset="1" style="stop-color:#F9D953"/>
	</linearGradient>
	<polygon class="st1" points="109.1,271.9 210.4,295 167.3,250.9 	"/>
</g>
</svg>
