<?xml version="1.0" encoding="utf-8"?>
<!-- Generator: Adobe Illustrator 19.1.0, SVG Export Plug-In . SVG Version: 6.00 Build 0)  -->
<svg version="1.1" id="Слой_1" xmlns="http://www.w3.org/2000/svg" xmlns:xlink="http://www.w3.org/1999/xlink" x="0px" y="0px"
	 viewBox="0 0 114.5 93" style="enable-background:new 0 0 114.5 93;" xml:space="preserve">
<style type="text/css">
	.st0{fill:url(#SVGID_1_);}
	.st1{fill:url(#SVGID_2_);}
</style>
<g>
	<g>
		<linearGradient id="SVGID_1_" gradientUnits="userSpaceOnUse" x1="0" y1="64.3846" x2="114.4615" y2="64.3846">
			<stop  offset="0" style="stop-color:#0A4166"/>
			<stop  offset="1" style="stop-color:#0D547C"/>
		</linearGradient>
		<path class="st0" d="M92.7,49.3l12.2,26.1l-16.5,8.3l-5.5-27.7l8.5-9.3l-3.1-6.1l-9.5,9.4L57.2,35.8L35.8,50.1L21.5,35.8L0,78.7
			L28.6,93l28.6-14.3L85.8,93l28.6-14.3L96.3,42.3L92.7,49.3z M26.1,84.4L9.6,75.5l13.6-29.3l9.7,9.6L26.1,84.4z M52.9,72.1
			l-20,10.5L38,56.8l15.7-10.6L52.9,72.1z M60.8,72.5V46.8l15.9,9.8l4.1,26L60.8,72.5z"/>
	</g>
	<g>
		<g>
			<g>
				<g>
					<linearGradient id="SVGID_2_" gradientUnits="userSpaceOnUse" x1="75.1154" y1="28.6154" x2="110.8846" y2="28.6154">
						<stop  offset="0" style="stop-color:#9B1038"/>
						<stop  offset="1" style="stop-color:#B21449"/>
					</linearGradient>
					<path class="st1" d="M93,0c-9.9,0-17.9,8-17.9,17.9c0,2.7,0.6,5.2,1.6,7.5L93,57.2l16.2-31.9c1-2.3,1.6-4.8,1.6-7.5
						C110.9,8,102.9,0,93,0z M93,28.6c-5.9,0-10.7-4.8-10.7-10.7S87.1,7.2,93,7.2s10.7,4.8,10.7,10.7S98.9,28.6,93,28.6z"/>
				</g>
			</g>
		</g>
	</g>
</g>
</svg>
