<?xml version="1.0" encoding="utf-8"?>
<!-- Generator: Adobe Illustrator 19.1.0, SVG Export Plug-In . SVG Version: 6.00 Build 0)  -->
<svg version="1.1" id="Слой_1" xmlns="http://www.w3.org/2000/svg" xmlns:xlink="http://www.w3.org/1999/xlink" x="0px" y="0px"
	 viewBox="0 0 120 78.1193" style="enable-background:new 0 0 120 78.1193;" xml:space="preserve">
<style type="text/css">
	.st0{fill:#FFFFFF;}
	.st1{fill:url(#SVGID_1_);}
	.st2{fill:#F2F2F2;}
	.st3{fill:url(#SVGID_2_);}
	.st4{fill:url(#SVGID_3_);}
	.st5{fill:url(#SVGID_4_);}
	.st6{fill:url(#SVGID_5_);}
	.st7{fill:url(#SVGID_6_);}
</style>
<g>
	<g>
		<rect x="8.6432" y="29.97" class="st0" width="61.9829" height="45.5298"/>
		<g>
			<linearGradient id="SVGID_1_" gradientUnits="userSpaceOnUse" x1="0" y1="41.1544" x2="80" y2="41.1544">
				<stop  offset="0" style="stop-color:#FFC900"/>
				<stop  offset="1" style="stop-color:#F9D953"/>
			</linearGradient>
			<path class="st1" d="M0,30.6193c0,4.6533,3.1934,8.5303,7.5,9.6484v32.8516h-5c-1.377,0-2.5,1.1181-2.5,2.5s1.1231,2.5,2.5,2.5
				h75c1.3867,0,2.5-1.1181,2.5-2.5s-1.1133-2.5-2.5-2.5h-5V40.2677c4.3066-1.1181,7.5-4.9952,7.5-9.6484v-2.5H0V30.6193z
				 M50,40.6193c5.5273,0,10-4.4775,10-10c0,4.6533,3.1934,8.5303,7.5,9.6484v32.8516H30v-32.5c5.5273,0,10-4.4775,10-10
				C40,36.1418,44.4825,40.6193,50,40.6193z M27.5,40.2677v32.8516h-15V40.2677c4.3067-1.1181,7.5-4.9952,7.5-9.6484
				C20,35.2726,23.1934,39.1496,27.5,40.2677z M70,5.6193L10.6486,4.1895L0,25.6193h80L70,5.6193z M21.25,58.5002v-5.7617
				C20.5175,52.2991,20,51.5373,20,50.6194c0-1.3819,1.1231-2.5,2.5-2.5c1.3867,0,2.5,1.1181,2.5,2.5
				c0,0.918-0.5127,1.6797-1.25,2.1191v5.7617c0.7373,0.4395,1.25,1.2012,1.25,2.1192c0,1.3819-1.1133,2.5-2.5,2.5
				c-1.377,0-2.5-1.1181-2.5-2.5C20,59.7013,20.5177,58.9396,21.25,58.5002z M43.8184,54.003l-1.7675-1.7677l7.0703-7.0703
				l1.7675,1.7677L43.8184,54.003z M43.8184,61.0734l-1.7675-1.7677l14.1406-14.1406l1.7675,1.7677L43.8184,61.0734z
				 M56.1914,52.2355l1.7675,1.7677l-7.0703,7.0703l-1.7675-1.7677L56.1914,52.2355z"/>
		</g>
		<rect y="25.6193" class="st2" width="80" height="2.5"/>
		<linearGradient id="SVGID_2_" gradientUnits="userSpaceOnUse" x1="6.679" y1="2.8425" x2="73.321" y2="2.8425">
			<stop  offset="0" style="stop-color:#FFC900"/>
			<stop  offset="1" style="stop-color:#F9D953"/>
		</linearGradient>
		<path class="st3" d="M6.679,2.8425c0-1.5349,1.2475-2.7768,2.7768-2.7768h61.0886c1.5402,0,2.7768,1.2419,2.7768,2.7768
			s-1.2365,2.7768-2.7768,2.7768H9.4557C7.9264,5.6193,6.679,4.3774,6.679,2.8425z"/>
	</g>
	<g>
		<g>
			<rect x="28.6432" y="29.9042" class="st0" width="61.9829" height="45.5298"/>
			<g>
				<g>
					<linearGradient id="SVGID_3_" gradientUnits="userSpaceOnUse" x1="20" y1="40.8299" x2="100" y2="40.8299">
						<stop  offset="0" style="stop-color:#9B1038"/>
						<stop  offset="1" style="stop-color:#B21449"/>
					</linearGradient>
					<path class="st4" d="M20,30.5535c0,4.6533,3.1934,8.5303,7.5,9.6484v32.8516h-5c-1.377,0-2.5,1.1181-2.5,2.5
						s1.1231,2.5,2.5,2.5h75c1.3867,0,2.5-1.1181,2.5-2.5s-1.1133-2.5-2.5-2.5h-5V40.2019c4.3066-1.1181,7.5-4.9952,7.5-9.6484v-2.5
						H20V30.5535z M70,40.5535c5.5273,0,10-4.4775,10-10c0,4.6533,3.1934,8.5303,7.5,9.6484v32.8516H50v-32.5
						c5.5273,0,10-4.4775,10-10C60,36.076,64.4825,40.5535,70,40.5535z M47.5,40.2019v32.8516h-15V40.2019
						c4.3067-1.1181,7.5-4.9952,7.5-9.6484C40,35.2068,43.1934,39.0838,47.5,40.2019z M90,5.5535L31.0653,3.6062L20,25.5535h80
						L90,5.5535z M41.25,58.4344v-5.7617C40.5175,52.2333,40,51.4715,40,50.5537c0-1.3819,1.1231-2.5,2.5-2.5
						c1.3867,0,2.5,1.1181,2.5,2.5c0,0.918-0.5127,1.6797-1.25,2.1191v5.7617C44.4873,58.874,45,59.6357,45,60.5537
						c0,1.3819-1.1133,2.5-2.5,2.5c-1.377,0-2.5-1.1181-2.5-2.5C40,59.6355,40.5177,58.8738,41.25,58.4344z M63.8184,53.9373
						l-1.7675-1.7677l7.0703-7.0703l1.7675,1.7677L63.8184,53.9373z M63.8184,61.0076l-1.7675-1.7677l14.1406-14.1406l1.7675,1.7677
						L63.8184,61.0076z M76.1914,52.1698l1.7675,1.7677l-7.0703,7.0703l-1.7675-1.7677L76.1914,52.1698z"/>
				</g>
			</g>
			<rect x="20" y="25.5535" class="st2" width="80" height="2.5"/>
			<g>
				<linearGradient id="SVGID_4_" gradientUnits="userSpaceOnUse" x1="26.679" y1="2.7768" x2="93.321" y2="2.7768">
					<stop  offset="0" style="stop-color:#9B1038"/>
					<stop  offset="1" style="stop-color:#B21449"/>
				</linearGradient>
				<path class="st5" d="M26.679,2.7768C26.679,1.2419,27.9264,0,29.4557,0h61.0886c1.5402,0,2.7768,1.2419,2.7768,2.7768
					s-1.2365,2.7768-2.7768,2.7768H29.4557C27.9264,5.5535,26.679,4.3116,26.679,2.7768z"/>
			</g>
		</g>
	</g>
	<g>
		<rect x="48.6432" y="29.9042" class="st0" width="61.9829" height="45.5298"/>
		<g>
			<linearGradient id="SVGID_5_" gradientUnits="userSpaceOnUse" x1="40" y1="41.1215" x2="120" y2="41.1215">
				<stop  offset="0" style="stop-color:#0A4166"/>
				<stop  offset="1" style="stop-color:#0D547C"/>
			</linearGradient>
			<path class="st6" d="M40,30.5535c0,4.6533,3.1934,8.5303,7.5,9.6484v32.8516h-5c-1.377,0-2.5,1.1181-2.5,2.5s1.1231,2.5,2.5,2.5
				h75c1.3867,0,2.5-1.1181,2.5-2.5s-1.1133-2.5-2.5-2.5h-5V40.2019c4.3066-1.1181,7.5-4.9952,7.5-9.6484v-2.5H40V30.5535z
				 M90,40.5535c5.5273,0,10-4.4775,10-10c0,4.6533,3.1934,8.5303,7.5,9.6484v32.8516H70v-32.5c5.5273,0,10-4.4775,10-10
				C80,36.076,84.4825,40.5535,90,40.5535z M67.5,40.2019v32.8516h-15V40.2019c4.3067-1.1181,7.5-4.9952,7.5-9.6484
				C60,35.2068,63.1934,39.0838,67.5,40.2019z M109.3153,4.1895L50.3986,4.7729L40,25.5535h80L109.3153,4.1895z M61.25,58.4344
				v-5.7617C60.5175,52.2333,60,51.4715,60,50.5537c0-1.3819,1.1231-2.5,2.5-2.5c1.3867,0,2.5,1.1181,2.5,2.5
				c0,0.918-0.5127,1.6797-1.25,2.1191v5.7617C64.4873,58.874,65,59.6357,65,60.5537c0,1.3819-1.1133,2.5-2.5,2.5
				c-1.377,0-2.5-1.1181-2.5-2.5C60,59.6355,60.5177,58.8738,61.25,58.4344z M83.8184,53.9373l-1.7675-1.7677l7.0703-7.0703
				l1.7675,1.7677L83.8184,53.9373z M83.8184,61.0076l-1.7675-1.7677l14.1406-14.1406l1.7675,1.7677L83.8184,61.0076z
				 M96.1914,52.1698l1.7675,1.7677l-7.0703,7.0703l-1.7675-1.7677L96.1914,52.1698z"/>
		</g>
		<rect x="40" y="25.5535" class="st2" width="80" height="2.5"/>
		<linearGradient id="SVGID_6_" gradientUnits="userSpaceOnUse" x1="46.679" y1="2.7768" x2="113.321" y2="2.7768">
			<stop  offset="0" style="stop-color:#0A4166"/>
			<stop  offset="1" style="stop-color:#0D547C"/>
		</linearGradient>
		<path class="st7" d="M46.679,2.7768C46.679,1.2419,47.9264,0,49.4557,0h61.0886c1.5402,0,2.7768,1.2419,2.7768,2.7768
			s-1.2365,2.7768-2.7768,2.7768H49.4557C47.9264,5.5535,46.679,4.3116,46.679,2.7768z"/>
	</g>
</g>
</svg>
