<?xml version="1.0" encoding="utf-8"?>
<!-- Generator: Adobe Illustrator 19.1.0, SVG Export Plug-In . SVG Version: 6.00 Build 0)  -->
<svg version="1.1" id="Слой_1" xmlns="http://www.w3.org/2000/svg" xmlns:xlink="http://www.w3.org/1999/xlink" x="0px" y="0px"
	 viewBox="0 0 120 93.9" style="enable-background:new 0 0 120 93.9;" xml:space="preserve">
<style type="text/css">
	.st0{fill:#FCFCFC;}
	.st1{fill:url(#SVGID_1_);}
	.st2{fill:url(#SVGID_2_);}
	.st3{fill:url(#SVGID_3_);}
	.st4{fill:url(#SVGID_4_);}
	.st5{fill:url(#SVGID_5_);}
</style>
<g>
	<g>
		<circle class="st0" cx="77.6" cy="42.4" r="42.4"/>
		<linearGradient id="SVGID_1_" gradientUnits="userSpaceOnUse" x1="35.2593" y1="42.3704" x2="120" y2="42.3704">
			<stop  offset="0" style="stop-color:#FFC900"/>
			<stop  offset="1" style="stop-color:#F9D953"/>
		</linearGradient>
		<path class="st1" d="M77.6,10C95.5,10,110,24.5,110,42.4S95.5,74.7,77.6,74.7S45.3,60.2,45.3,42.4S59.8,10,77.6,10 M77.6,0
			C54.2,0,35.3,19,35.3,42.4s19,42.4,42.4,42.4s42.4-19,42.4-42.4S101,0,77.6,0L77.6,0z"/>
	</g>
	<g>
		<g>
			<linearGradient id="SVGID_2_" gradientUnits="userSpaceOnUse" x1="69.3154" y1="41.8639" x2="98.9104" y2="41.8639">
				<stop  offset="0" style="stop-color:#FFC900"/>
				<stop  offset="1" style="stop-color:#F9D953"/>
			</linearGradient>
			<path class="st2" d="M69.3,63.1c0-14,0.1-28.6,0.1-42.6c6.1,0,8.3,0,14.5,0.1c20.1,0.1,20,29.3-0.1,29.2l-7.7,0l0,13.4
				C72.4,63.2,72.9,63.2,69.3,63.1z M83.8,26.2c-2.5,0-5.2,0-7.7,0c0,3.4,0,14.6,0,18l7.7,0C95.7,44.2,95.6,26.2,83.8,26.2z"/>
		</g>
	</g>
	<g>
		<circle class="st0" cx="35.4" cy="58.5" r="35.4"/>
		<g>
			<linearGradient id="SVGID_3_" gradientUnits="userSpaceOnUse" x1="0" y1="58.5185" x2="70.8148" y2="58.5185">
				<stop  offset="0" style="stop-color:#0A4166"/>
				<stop  offset="1" style="stop-color:#0D547C"/>
			</linearGradient>
			<path class="st3" d="M35.4,33.1c14,0,25.4,11.4,25.4,25.4S49.4,83.9,35.4,83.9S10,72.5,10,58.5S21.4,33.1,35.4,33.1 M35.4,23.1
				C15.9,23.1,0,39,0,58.5s15.9,35.4,35.4,35.4c19.6,0,35.4-15.9,35.4-35.4S55,23.1,35.4,23.1L35.4,23.1z"/>
		</g>
	</g>
	<linearGradient id="SVGID_4_" gradientUnits="userSpaceOnUse" x1="16.2841" y1="59.3773" x2="55.8517" y2="59.3773">
		<stop  offset="0" style="stop-color:#9B1038"/>
		<stop  offset="1" style="stop-color:#B21449"/>
	</linearGradient>
	<polygon class="st4" points="55.9,48.6 51.9,44.6 30.6,65.9 20.6,55.9 16.3,60.2 30.2,74.1 30.2,74.1 30.3,74.1 	"/>
</g>
<linearGradient id="SVGID_5_" gradientUnits="userSpaceOnUse" x1="74.4056" y1="55.8238" x2="86.4155" y2="55.8238">
	<stop  offset="0" style="stop-color:#FFC900"/>
	<stop  offset="1" style="stop-color:#F9D953"/>
</linearGradient>
<rect x="74.4" y="53.6" class="st5" width="12" height="4.4"/>
</svg>
