<?xml version="1.0" encoding="utf-8"?>
<!-- Generator: Adobe Illustrator 19.1.0, SVG Export Plug-In . SVG Version: 6.00 Build 0)  -->
<svg version="1.1" id="Слой_1" xmlns="http://www.w3.org/2000/svg" xmlns:xlink="http://www.w3.org/1999/xlink" x="0px" y="0px"
	 viewBox="0 0 89 93" style="enable-background:new 0 0 89 93;" xml:space="preserve">
<style type="text/css">
	.st0{fill:url(#SVGID_1_);}
	.st1{fill:#0A4166;}
	.st2{fill:url(#SVGID_2_);}
	.st3{fill:url(#SVGID_3_);}
</style>
<g>
	<g>
		<g id="Layer_2_17_">
			<g>
				<linearGradient id="SVGID_1_" gradientUnits="userSpaceOnUse" x1="16.6798" y1="46.5" x2="89.0442" y2="46.5">
					<stop  offset="0" style="stop-color:#0A4166"/>
					<stop  offset="1" style="stop-color:#0D547C"/>
				</linearGradient>
				<path class="st0" d="M27.7,86.2c10.7,4.3,22.5,4.3,33.2,0c1.1-0.4,2.1-0.9,3.2-1.4c0,0,0,0,0,0c0,0,0.1,0,0.1-0.1
					c9.1-4.5,16.3-11.9,20.6-21.2c0-0.1,0.1-0.1,0.1-0.2c0.1-0.3,0.3-0.6,0.4-0.9c0.2-0.5,0.4-1,0.6-1.6c0-0.1,0-0.1,0.1-0.2
					c3.3-8.7,3.8-18.1,1.5-27c0,0,0-0.1,0-0.1c-0.2-0.9-0.5-1.8-0.8-2.6c0-0.1,0-0.1-0.1-0.2c-0.3-0.9-0.6-1.7-0.9-2.6
					c-3.5-8.7-9.5-16-17.2-20.9c0,0,0,0-0.1,0c0,0,0,0,0,0c-2.1-1.3-4.3-2.5-6.6-3.5C55.9,1,49.5-0.2,43,0c-2,0.1-3.5,1.7-3.5,3.7
					c0.1,2,1.7,3.5,3.7,3.5c3.3-0.1,6.5,0.2,9.6,1c0,0,0.1,0,0.1,0c0.7,0.2,1.5,0.4,2.2,0.6c0,0,0,0,0,0c1.3,0.4,2.7,0.9,4,1.4
					c15,6.4,23.6,21.5,22.6,37c0,0.2,0,0.5-0.1,0.7c-0.3,3.9-1.3,7.8-2.9,11.6c-1.6,3.8-3.8,7.2-6.5,10.2c0,0-0.1,0.1-0.1,0.1
					c-0.2,0.2-0.3,0.4-0.5,0.5c-0.1,0.1-0.1,0.1-0.2,0.2c-8.5,8.9-21,13.2-33.3,11.2c0,0,0,0,0,0c-0.2,0-0.4-0.1-0.5-0.1
					c0,0,0,0-0.1,0c-2.4-0.4-4.8-1.1-7.2-2.1l2.9-6.9L16.7,78l8.2,15L27.7,86.2z"/>
			</g>
		</g>
	</g>
	<circle class="st1" cx="27.6" cy="7.3" r="3.6"/>
	<circle class="st1" cx="16.2" cy="15.1" r="3.6"/>
	<circle class="st1" cx="7.7" cy="26.1" r="3.6"/>
	<circle class="st1" cx="3.6" cy="39.3" r="3.6"/>
	<circle class="st1" cx="4.1" cy="53.6" r="3.6"/>
	<circle class="st1" cx="9.4" cy="66.4" r="3.6"/>
	<g>
		<g>
			<linearGradient id="SVGID_2_" gradientUnits="userSpaceOnUse" x1="19.739" y1="43.4199" x2="41.0786" y2="43.4199">
				<stop  offset="0" style="stop-color:#9B1038"/>
				<stop  offset="1" style="stop-color:#B21449"/>
			</linearGradient>
			<path class="st2" d="M41.1,51.3h-2.6v6.1h-6.7v-6.1H22l-2.2-4.1l13-17.6h5.8v16.1h2.6V51.3z M32.3,45.7l0.1-7.1l-5,7.1H32.3z"/>
			<linearGradient id="SVGID_3_" gradientUnits="userSpaceOnUse" x1="45.1908" y1="43.4199" x2="66.4135" y2="43.4199">
				<stop  offset="0" style="stop-color:#9B1038"/>
				<stop  offset="1" style="stop-color:#B21449"/>
			</linearGradient>
			<path class="st3" d="M55.6,57.7c-6.4,0-10.4-3.1-10.4-8.8c0-2.2,1.3-4.6,3.7-6.5c-1.8-1.2-2.4-3.3-2.4-5c0-6.5,5.5-8.4,9.1-8.4
				h0.6c4.6,0,9.1,2.4,9.1,8.6c0,1.2-0.8,3.6-2.4,4.7c2.6,1.3,3.7,4.2,3.6,6.1c-0.1,5.7-3.4,9.2-10.3,9.2H55.6z M56.2,51.2
				c4.7,0,4.1-6.3,0.1-6h-0.9c-3.9-0.1-4.5,5.9,0.1,6H56.2z M55.6,34.9c-3.6,0.1-3.6,5.5,0.2,5.5c4.3,0,4-5.3,0.4-5.5H55.6z"/>
		</g>
	</g>
</g>
</svg>
