<?xml version="1.0" encoding="utf-8"?>
<!-- Generator: Adobe Illustrator 19.1.0, SVG Export Plug-In . SVG Version: 6.00 Build 0)  -->
<svg version="1.1" id="Слой_1" xmlns="http://www.w3.org/2000/svg" xmlns:xlink="http://www.w3.org/1999/xlink" x="0px" y="0px"
	 viewBox="0 0 85 85" style="enable-background:new 0 0 85 85;" xml:space="preserve">
<style type="text/css">
	.st0{fill:url(#XMLID_3_);}
</style>
<linearGradient id="XMLID_3_" gradientUnits="userSpaceOnUse" x1="0" y1="42.5" x2="85" y2="42.5">
	<stop  offset="0" style="stop-color:#9B1038"/>
	<stop  offset="1" style="stop-color:#B21449"/>
</linearGradient>
<path id="XMLID_157_" class="st0" d="M0,0v85h85V0H0z M79.3,79.3H61.8v-5.9h11.6V11.5H56.2v5.7h11.6V40h-6V23.2H23.2v38.6H43v-5.7
	H28.8V28.8h15.8v12.5h-7.5V47L50.3,47V28.8h5.8v27.3h-6.3v5.7h12V45.7h6v22.1H17.2v-9.9h-5.7v15.6h44.6v5.9H5.7V27.2h5.9v24.5h5.7
	V17.2h33.1v-5.7H11.5v9.9H5.7V5.7h73.7L79.3,79.3L79.3,79.3z"/>
</svg>
