<?xml version="1.0" encoding="utf-8"?>
<!-- Generator: Adobe Illustrator 19.1.0, SVG Export Plug-In . SVG Version: 6.00 Build 0)  -->
<svg version="1.1" id="Слой_1" xmlns="http://www.w3.org/2000/svg" xmlns:xlink="http://www.w3.org/1999/xlink" x="0px" y="0px"
	 viewBox="0 0 89.2 85" style="enable-background:new 0 0 89.2 85;" xml:space="preserve">
<style type="text/css">
	.st0{fill:#FCFCFC;}
	.st1{fill:url(#SVGID_1_);}
	.st2{fill:url(#SVGID_2_);}
	.st3{fill:url(#SVGID_3_);}
	.st4{fill:#F2F2F2;}
</style>
<g>
	<rect x="5.6" y="23.7" class="st0" width="78" height="55.7"/>
	<linearGradient id="SVGID_1_" gradientUnits="userSpaceOnUse" x1="0" y1="45.9931" x2="89.1585" y2="45.9931">
		<stop  offset="0" style="stop-color:#0A4166"/>
		<stop  offset="1" style="stop-color:#0D547C"/>
	</linearGradient>
	<path class="st1" d="M27.9,40.4H16.7V29.3h11.1V40.4z M50.2,29.3H39v11.1h11.1V29.3z M72.4,29.3H61.3v11.1h11.1V29.3z M27.9,46
		H16.7v11.1h11.1V46z M50.2,46H39v11.1h11.1V46z M72.4,46H61.3v11.1h11.1V46z M27.9,62.7H16.7v11.1h11.1V62.7z M50.2,62.7H39v11.1
		h11.1V62.7z M89.2,7v78H0V7H89.2z M83.6,23.7h-78v55.7h78V23.7z"/>
	<linearGradient id="SVGID_2_" gradientUnits="userSpaceOnUse" x1="19.5559" y1="6.9863" x2="25.0234" y2="6.9863">
		<stop  offset="0" style="stop-color:#FFC900"/>
		<stop  offset="1" style="stop-color:#F9D953"/>
	</linearGradient>
	<rect x="19.6" class="st2" width="5.5" height="14"/>
	<linearGradient id="SVGID_3_" gradientUnits="userSpaceOnUse" x1="64.1351" y1="6.9863" x2="69.6027" y2="6.9863">
		<stop  offset="0" style="stop-color:#FFC900"/>
		<stop  offset="1" style="stop-color:#F9D953"/>
	</linearGradient>
	<rect x="64.1" y="0" class="st3" width="5.5" height="14"/>
	<polygon class="st4" points="29.1,30.6 28,29.4 20.3,37.1 16.6,33.5 15.5,34.6 20.3,39.4 20.3,39.4 20.3,39.4 	"/>
	<polygon class="st4" points="51.3,47.3 50.1,46.1 42.5,53.8 38.8,50.2 37.7,51.3 42.4,56.1 42.5,56.1 42.5,56.1 	"/>
	<polygon class="st4" points="29.1,64 28,62.8 20.3,70.5 16.6,66.9 15.5,68 20.3,72.8 20.3,72.8 20.3,72.8 	"/>
</g>
</svg>
