<?xml version="1.0" encoding="utf-8"?>
<!-- Generator: Adobe Illustrator 19.1.0, SVG Export Plug-In . SVG Version: 6.00 Build 0)  -->
<svg version="1.1" id="Слой_1" xmlns="http://www.w3.org/2000/svg" xmlns:xlink="http://www.w3.org/1999/xlink" x="0px" y="0px"
	 viewBox="0 0 92.8 95.3" style="enable-background:new 0 0 92.8 95.3;" xml:space="preserve">
<style type="text/css">
	.st0{fill:url(#SVGID_1_);}
	.st1{fill:#9B1038;}
	.st2{fill:url(#SVGID_2_);}
</style>
<g>
	<g>
		<g>
			<linearGradient id="SVGID_1_" gradientUnits="userSpaceOnUse" x1="19.097" y1="36.8377" x2="92.7724" y2="36.8377">
				<stop  offset="0" style="stop-color:#9B1038"/>
				<stop  offset="1" style="stop-color:#B21449"/>
			</linearGradient>
			<path class="st0" d="M55.9,9c15.3,0,27.8,12.5,27.8,27.8S71.3,64.7,55.9,64.7S28.1,52.2,28.1,36.8S40.6,9,55.9,9 M55.9,0
				C35.6,0,19.1,16.5,19.1,36.8s16.5,36.8,36.8,36.8c20.3,0,36.8-16.5,36.8-36.8S76.3,0,55.9,0L55.9,0z"/>
		</g>
	</g>
	<polygon class="st1" points="6.9,95.3 0,87.9 29.1,59.4 36,66.8 	"/>
	<g>
		<linearGradient id="SVGID_2_" gradientUnits="userSpaceOnUse" x1="32.656" y1="37.7012" x2="79.2135" y2="37.7012">
			<stop  offset="0" style="stop-color:#0A4166"/>
			<stop  offset="1" style="stop-color:#0D547C"/>
		</linearGradient>
		<path class="st2" d="M55.9,23.2c-10.2,0-19,5.9-23.3,14.5c4.3,8.6,13.1,14.5,23.3,14.5c10.2,0,19-5.9,23.3-14.5
			C74.9,29.1,66.1,23.2,55.9,23.2z M67.4,30.9c2.7,1.7,5.1,4.1,6.8,6.8c-1.7,2.8-4.1,5.1-6.8,6.8c-3.4,2.2-7.4,3.4-11.5,3.4
			c-4.1,0-8-1.2-11.5-3.4c-2.7-1.7-5.1-4.1-6.8-6.8c1.7-2.8,4.1-5.1,6.8-6.8c0.2-0.1,0.4-0.2,0.5-0.3c-0.5,1.2-0.7,2.6-0.7,4
			c0,6.4,5.2,11.6,11.6,11.6c6.4,0,11.6-5.2,11.6-11.6c0-1.4-0.2-2.7-0.7-4C67.1,30.6,67.2,30.8,67.4,30.9z M55.9,33.1
			c0,2.4-2,4.4-4.4,4.4s-4.4-2-4.4-4.4c0-2.4,2-4.4,4.4-4.4S55.9,30.7,55.9,33.1z"/>
	</g>
</g>
</svg>
