<?xml version="1.0" encoding="utf-8"?>
<!-- Generator: Adobe Illustrator 19.1.0, SVG Export Plug-In . SVG Version: 6.00 Build 0)  -->
<svg version="1.1" id="Слой_1" xmlns="http://www.w3.org/2000/svg" xmlns:xlink="http://www.w3.org/1999/xlink" x="0px" y="0px"
	 viewBox="0 0 120 86.7" style="enable-background:new 0 0 120 86.7;" xml:space="preserve">
<style type="text/css">
	.st0{fill:url(#SVGID_1_);}
	.st1{fill:#333333;}
	.st2{fill:url(#SVGID_2_);}
	.st3{fill:url(#SVGID_3_);}
</style>
<g>
	<g>
		<g>
			<linearGradient id="SVGID_1_" gradientUnits="userSpaceOnUse" x1="32.6235" y1="33.9279" x2="120" y2="33.9279">
				<stop  offset="0" style="stop-color:#9B1038"/>
				<stop  offset="1" style="stop-color:#B21449"/>
			</linearGradient>
			<path class="st0" d="M119.9,21.5c0.6-2.8-1.2-5.7-4-6.3l-67.4-15c-2.9-0.6-5.7,1.2-6.3,4l-9.3,42.3c-0.6,2.8,1.2,5.7,4,6.3
				l67.4,15c2.9,0.6,5.7-1.2,6.3-4L119.9,21.5z"/>
			<polygon class="st1" points="116.3,37.7 118.4,28 40.6,10.7 38.5,20.2 			"/>
		</g>
		<linearGradient id="SVGID_2_" gradientUnits="userSpaceOnUse" x1="0" y1="51.3289" x2="88.819" y2="51.3289">
			<stop  offset="0" style="stop-color:#FFC900"/>
			<stop  offset="1" style="stop-color:#F9D953"/>
		</linearGradient>
		<path class="st2" d="M77,19.9c-0.8-2.8-3.7-4.5-6.5-3.7L3.9,34.6c-2.8,0.8-4.5,3.7-3.7,6.5l11.6,41.7c0.8,2.8,3.7,4.5,6.5,3.7
			l66.6-18.4c2.8-0.8,4.5-3.7,3.7-6.5L77,19.9z"/>
		<polygon class="st1" points="81.5,35.9 78.8,26.3 2,47.6 4.6,56.9 		"/>
		<linearGradient id="SVGID_3_" gradientUnits="userSpaceOnUse" x1="16.1974" y1="70.2629" x2="30.4955" y2="70.2629">
			<stop  offset="0" style="stop-color:#0A4166"/>
			<stop  offset="1" style="stop-color:#0D547C"/>
		</linearGradient>
		<path class="st3" d="M28.3,64.7c-0.3-1.2-1.5-1.8-2.7-1.5l-7.8,2.2c-1.2,0.3-1.8,1.5-1.5,2.7l2.2,7.8c0.3,1.2,1.5,1.8,2.7,1.5
			l7.8-2.2c1.2-0.3,1.8-1.5,1.5-2.7L28.3,64.7z"/>
	</g>
</g>
</svg>
