<?xml version="1.0" encoding="utf-8"?>
<!-- Generator: Adobe Illustrator 19.1.0, SVG Export Plug-In . SVG Version: 6.00 Build 0)  -->
<svg version="1.1" id="Слой_1" xmlns="http://www.w3.org/2000/svg" xmlns:xlink="http://www.w3.org/1999/xlink" x="0px" y="0px"
	 viewBox="0 0 132 180" style="enable-background:new 0 0 132 180;" xml:space="preserve">
<style type="text/css">
	.st0{fill:#D1DCE0;}
	.st1{fill-rule:evenodd;clip-rule:evenodd;fill:url(#SVGID_1_);}
	.st2{fill-rule:evenodd;clip-rule:evenodd;fill:#F2F2F2;}
	.st3{fill-rule:evenodd;clip-rule:evenodd;fill:url(#SVGID_2_);}
	.st4{fill-rule:evenodd;clip-rule:evenodd;fill:url(#SVGID_3_);}
	.st5{fill-rule:evenodd;clip-rule:evenodd;fill:url(#SVGID_4_);}
	.st6{fill-rule:evenodd;clip-rule:evenodd;fill:url(#SVGID_5_);}
	.st7{fill-rule:evenodd;clip-rule:evenodd;fill:url(#SVGID_6_);}
	.st8{fill-rule:evenodd;clip-rule:evenodd;fill:url(#SVGID_7_);}
	.st9{fill:#F2F2F2;}
	.st10{opacity:0.17;fill-rule:evenodd;clip-rule:evenodd;fill:#F2F2F2;}
</style>
<polygon class="st0" points="132,0 78.1845,90.683 132,180 13.7068,180 13.7068,0 "/>
<g>
	<g>
		
			<linearGradient id="SVGID_1_" gradientUnits="userSpaceOnUse" x1="219.8549" y1="6818.6084" x2="335.9699" y2="6818.6084" gradientTransform="matrix(-1 0 0 -1 335.9699 6909.0596)">
			<stop  offset="0" style="stop-color:#0A4166"/>
			<stop  offset="1" style="stop-color:#0D547C"/>
		</linearGradient>
		<path class="st1" d="M2.588,51.8043h110.939c1.4237,0,2.588,1.1675,2.588,2.5935v72.107c0,1.426-1.1643,2.5935-2.588,2.5935H2.588
			c-1.4223,0-2.588-1.1667-2.588-2.5935l0-72.107C0,52.9717,1.1644,51.8043,2.588,51.8043"/>
	</g>
	<rect x="6.1928" y="56.8364" class="st2" width="103.7293" height="67.2298"/>
	<linearGradient id="SVGID_2_" gradientUnits="userSpaceOnUse" x1="15.482" y1="71.2673" x2="100.6329" y2="71.2673">
		<stop  offset="0" style="stop-color:#9B1038"/>
		<stop  offset="1" style="stop-color:#B21449"/>
	</linearGradient>
	<rect x="15.482" y="63.5379" class="st3" width="85.151" height="15.4588"/>
	<linearGradient id="SVGID_3_" gradientUnits="userSpaceOnUse" x1="15.482" y1="90.3183" x2="100.6329" y2="90.3183">
		<stop  offset="0" style="stop-color:#FFC900"/>
		<stop  offset="1" style="stop-color:#F9D953"/>
	</linearGradient>
	<rect x="15.482" y="82.5889" class="st4" width="85.151" height="15.4588"/>
	<linearGradient id="SVGID_4_" gradientUnits="userSpaceOnUse" x1="15.482" y1="109.2838" x2="100.6329" y2="109.2838">
		<stop  offset="0" style="stop-color:#0A4166"/>
		<stop  offset="1" style="stop-color:#0D547C"/>
	</linearGradient>
	<rect x="15.482" y="101.5544" class="st5" width="85.151" height="15.4588"/>
	<linearGradient id="SVGID_5_" gradientUnits="userSpaceOnUse" x1="81.3568" y1="90.3845" x2="100.7093" y2="90.3845">
		<stop  offset="0" style="stop-color:#9B1038"/>
		<stop  offset="1" style="stop-color:#B21449"/>
	</linearGradient>
	<rect x="81.3568" y="82.6551" class="st6" width="19.3525" height="15.4588"/>
	<linearGradient id="SVGID_6_" gradientUnits="userSpaceOnUse" x1="45.6192" y1="71.2673" x2="64.9717" y2="71.2673">
		<stop  offset="0" style="stop-color:#0A4166"/>
		<stop  offset="1" style="stop-color:#0D547C"/>
	</linearGradient>
	<rect x="45.6192" y="63.5379" class="st7" width="19.3525" height="15.4588"/>
	<linearGradient id="SVGID_7_" gradientUnits="userSpaceOnUse" x1="15.482" y1="109.2838" x2="34.8345" y2="109.2838">
		<stop  offset="0" style="stop-color:#FFC900"/>
		<stop  offset="1" style="stop-color:#F9D953"/>
	</linearGradient>
	<rect x="15.482" y="101.5544" class="st8" width="19.3525" height="15.4588"/>
	<polygon class="st9" points="32.0887,105.6471 30.9187,104.4788 23.0053,112.3803 19.2338,108.6144 18.0638,109.7827 
		22.9899,114.7014 23.0053,114.686 23.0208,114.7014 	"/>
	<polygon class="st9" points="97.8872,86.3236 96.7171,85.1553 88.8038,93.0568 85.0323,89.2909 83.8623,90.4592 88.7883,95.3779 
		88.8038,95.3625 88.8193,95.3779 	"/>
	<polygon class="st9" points="63.0527,66.2272 61.8826,65.0588 53.9693,72.9603 50.1978,69.1944 49.0278,70.3628 53.9538,75.2815 
		53.9693,75.266 53.9848,75.2815 	"/>
	<polygon class="st10" points="109.9221,124.0662 6.1928,56.8364 109.9221,56.8364 	"/>
</g>
</svg>
