<?xml version="1.0" encoding="utf-8"?>
<!-- Generator: Adobe Illustrator 19.1.0, SVG Export Plug-In . SVG Version: 6.00 Build 0)  -->
<svg version="1.1" id="Слой_1" xmlns="http://www.w3.org/2000/svg" xmlns:xlink="http://www.w3.org/1999/xlink" x="0px" y="0px"
	 viewBox="0 0 165 180" style="enable-background:new 0 0 165 180;" xml:space="preserve">
<style type="text/css">
	.st0{fill:#D1DCE0;}
	.st1{fill-rule:evenodd;clip-rule:evenodd;fill:url(#SVGID_1_);}
	.st2{fill-rule:evenodd;clip-rule:evenodd;fill:#F2F2F2;}
	.st3{fill-rule:evenodd;clip-rule:evenodd;fill:url(#SVGID_2_);}
	.st4{fill:url(#SVGID_3_);}
	.st5{fill:url(#SVGID_4_);}
	.st6{fill-rule:evenodd;clip-rule:evenodd;fill:url(#SVGID_5_);}
	.st7{fill:url(#SVGID_6_);}
	.st8{fill:url(#SVGID_7_);}
	.st9{fill:url(#SVGID_8_);}
	.st10{fill:url(#SVGID_9_);}
	.st11{fill:url(#SVGID_10_);}
	.st12{fill:url(#SVGID_11_);}
	.st13{fill:url(#SVGID_12_);}
	.st14{fill:url(#SVGID_13_);}
	.st15{fill:url(#SVGID_14_);}
	.st16{fill-rule:evenodd;clip-rule:evenodd;fill:url(#SVGID_15_);}
	.st17{fill-rule:evenodd;clip-rule:evenodd;fill:url(#SVGID_16_);}
	.st18{fill-rule:evenodd;clip-rule:evenodd;fill:url(#SVGID_17_);}
	.st19{fill-rule:evenodd;clip-rule:evenodd;fill:url(#SVGID_18_);}
	.st20{fill-rule:evenodd;clip-rule:evenodd;fill:url(#SVGID_19_);}
	.st21{fill-rule:evenodd;clip-rule:evenodd;fill:url(#SVGID_20_);}
	.st22{fill-rule:evenodd;clip-rule:evenodd;fill:url(#SVGID_21_);}
	.st23{fill-rule:evenodd;clip-rule:evenodd;fill:url(#SVGID_22_);}
	.st24{fill-rule:evenodd;clip-rule:evenodd;fill:url(#SVGID_23_);}
	.st25{fill-rule:evenodd;clip-rule:evenodd;fill:url(#SVGID_24_);}
	.st26{fill-rule:evenodd;clip-rule:evenodd;fill:url(#SVGID_25_);}
	.st27{fill-rule:evenodd;clip-rule:evenodd;fill:url(#SVGID_26_);}
	.st28{fill-rule:evenodd;clip-rule:evenodd;fill:url(#SVGID_27_);}
	.st29{fill-rule:evenodd;clip-rule:evenodd;fill:url(#SVGID_28_);}
	.st30{fill-rule:evenodd;clip-rule:evenodd;fill:url(#SVGID_29_);}
	.st31{fill-rule:evenodd;clip-rule:evenodd;fill:url(#SVGID_30_);}
	.st32{fill-rule:evenodd;clip-rule:evenodd;fill:url(#SVGID_31_);}
	.st33{fill-rule:evenodd;clip-rule:evenodd;fill:url(#SVGID_32_);}
	.st34{fill-rule:evenodd;clip-rule:evenodd;fill:url(#SVGID_33_);}
	.st35{fill-rule:evenodd;clip-rule:evenodd;fill:url(#SVGID_34_);}
</style>
<polygon class="st0" points="165,0 111.2752,90.683 165,180 53.725,180 0,90.683 53.725,0 "/>
<g>
	<linearGradient id="SVGID_1_" gradientUnits="userSpaceOnUse" x1="43.9675" y1="89.4178" x2="100.5238" y2="89.4178">
		<stop  offset="0" style="stop-color:#0A4166"/>
		<stop  offset="1" style="stop-color:#0D547C"/>
	</linearGradient>
	<rect x="43.9675" y="48.9678" class="st1" width="56.5563" height="80.9"/>
	<rect x="46.9869" y="54.8471" class="st2" width="50.5174" height="71.8234"/>
	<linearGradient id="SVGID_2_" gradientUnits="userSpaceOnUse" x1="62.9563" y1="45.8066" x2="83.9706" y2="45.8066">
		<stop  offset="0" style="stop-color:#0A4166"/>
		<stop  offset="1" style="stop-color:#0D547C"/>
	</linearGradient>
	<path class="st3" d="M73.4647,36.8384L73.4647,36.8384c1.6943,0,3.0816,1.3835,3.0816,3.0731v8.9688h5.6631
		c0.9672,0,1.7613,0.7904,1.7613,1.7556v4.1388H73.4647V41.3246c0.7816,0,1.4158-0.6322,1.4158-1.4131
		c0-0.7798-0.6341-1.4119-1.4158-1.4119V36.8384z M64.7199,48.8803h5.6613v-8.9688c0-1.6896,1.3867-3.0731,3.0835-3.0731v1.6611
		c-0.784,0-1.417,0.6322-1.417,1.4119c0,0.781,0.6329,1.4131,1.417,1.4131v13.4502H62.9563v-4.1388
		C62.9563,49.6707,63.7504,48.8803,64.7199,48.8803"/>
	<g>
		<linearGradient id="SVGID_3_" gradientUnits="userSpaceOnUse" x1="60.7624" y1="94.1113" x2="83.7289" y2="94.1113">
			<stop  offset="0" style="stop-color:#FFC900"/>
			<stop  offset="1" style="stop-color:#F9D953"/>
		</linearGradient>
		<path class="st4" d="M72.2468,81.7971c4.677,0,8.482,3.7891,8.482,8.4465c0,2.9493-1.5078,5.6375-4.0333,7.1908
			c-0.7725,0.4751-1.2886,1.2742-1.404,2.1737l-0.8744,6.8173h-4.342l-0.8756-6.8177c-0.1155-0.8994-0.6316-1.6982-1.4039-2.1732
			c-2.5255-1.5533-4.0333-4.2415-4.0333-7.1908C63.7624,85.5862,67.5685,81.7971,72.2468,81.7971 M72.2468,78.7971
			c-6.3422,0-11.4844,5.123-11.4844,11.4465c0,4.121,2.1844,7.7305,5.4616,9.7462l1.2119,9.4356h9.6212l1.2102-9.4356
			c3.2772-2.0156,5.4616-5.6251,5.4616-9.7462C83.7289,83.9202,78.5885,78.7971,72.2468,78.7971L72.2468,78.7971z"/>
	</g>
	<linearGradient id="SVGID_4_" gradientUnits="userSpaceOnUse" x1="67.6236" y1="98.537" x2="76.9475" y2="98.537">
		<stop  offset="0" style="stop-color:#FFC900"/>
		<stop  offset="1" style="stop-color:#F9D953"/>
	</linearGradient>
	<path class="st5" d="M70.8434,104.1071c0.0527,0.2445-0.0796,0.4902-0.2921,0.5494c-0.2136,0.059-0.4292-0.091-0.4798-0.3356
		l-1.7036-7.9362v-3.7241l0.0403,0.091c-0.0093-0.0414-0.0222-0.0791-0.0403-0.1134v-0.0201
		c0.1447,0.176,0.3035,0.3414,0.472,0.4974c0.9834,0.9027,2.2703,1.3777,3.5427,1.3871c1.2677,0.0059,2.5154-0.4502,3.4269-1.4049
		c0.1515-0.157,0.2958-0.332,0.4307-0.5234c0.1376-0.1961,0.3879-0.2269,0.559-0.0685c0.1292,0.1181,0.1752,0.3084,0.1333,0.4797
		l-2.4315,11.3353c-0.0527,0.2446-0.2674,0.3947-0.4814,0.3356c-0.2136-0.0592-0.3449-0.3049-0.2937-0.5494l2.121-9.8809
		c-0.9968,0.8046-2.2264,1.1898-3.4668,1.1826c-1.2967-0.0071-2.6084-0.4443-3.6766-1.2784L70.8434,104.1071z M68.3678,96.3847
		l-0.7332-3.4181c-0.0507-0.2445,0.0791-0.4902,0.2927-0.5482c0.1541-0.0437,0.3087,0.0213,0.4012,0.1512l0.0393,0.0485v0.0201
		c-0.012-0.0248-0.0238-0.0473-0.0393-0.0686l0.0393,0.091V96.3847z"/>
	<linearGradient id="SVGID_5_" gradientUnits="userSpaceOnUse" x1="65.1329" y1="107.4913" x2="79.3582" y2="107.4913">
		<stop  offset="0" style="stop-color:#FFC900"/>
		<stop  offset="1" style="stop-color:#F9D953"/>
	</linearGradient>
	<path class="st6" d="M65.1329,103.3087h14.2253l-0.7111,6.6046c-0.1292,1.1933-0.1742,1.7605-1.769,1.7605h-9.2651
		c-1.5954,0-1.6398-0.5672-1.766-1.7605L65.1329,103.3087z"/>
	<linearGradient id="SVGID_6_" gradientUnits="userSpaceOnUse" x1="76.4176" y1="72.8276" x2="80.6119" y2="72.8276">
		<stop  offset="0" style="stop-color:#FFC900"/>
		<stop  offset="1" style="stop-color:#F9D953"/>
	</linearGradient>
	<path class="st7" d="M78.615,69.5534c0.0965-0.2667,0.2916-0.4681,0.5309-0.5803c0.2393-0.1103,0.5204-0.1304,0.7874-0.0351
		c0.2665,0.0962,0.4695,0.2926,0.5817,0.5303c0.1121,0.2375,0.1312,0.5182,0.0352,0.7839l-2.1258,5.8227l-0.0091,0.0261
		c-0.0965,0.2667-0.293,0.4682-0.5323,0.5803c-0.2052,0.0953-0.4415,0.1243-0.6717,0.0692h-0.0528l-0.089-0.044
		c-0.2534-0.0993-0.446-0.2898-0.555-0.5203c-0.1112-0.2375-0.1318-0.5182-0.0352-0.7839l0.007-0.019L78.615,69.5534z"/>
	<linearGradient id="SVGID_7_" gradientUnits="userSpaceOnUse" x1="80.8312" y1="75.998" x2="87.2263" y2="75.998">
		<stop  offset="0" style="stop-color:#FFC900"/>
		<stop  offset="1" style="stop-color:#F9D953"/>
	</linearGradient>
	<path class="st8" d="M85.3085,72.7922c0.1922-0.2269,0.4612-0.3568,0.7391-0.381c0.2764-0.0253,0.5618,0.0549,0.7905,0.2459
		c0.2287,0.1889,0.3596,0.4582,0.3839,0.7347c0.0244,0.2755-0.0566,0.5616-0.2472,0.7897l-4.2275,5.0216
		c-0.1921,0.228-0.459,0.3578-0.7386,0.3821c-0.2764,0.0243-0.5618-0.057-0.7905-0.247c-0.2292-0.1911-0.358-0.4581-0.3828-0.7358
		c-0.0244-0.2755,0.0555-0.5605,0.2472-0.7886L85.3085,72.7922z"/>
	<linearGradient id="SVGID_8_" gradientUnits="userSpaceOnUse" x1="84.4884" y1="80.8566" x2="91.755" y2="80.8566">
		<stop  offset="0" style="stop-color:#FFC900"/>
		<stop  offset="1" style="stop-color:#F9D953"/>
	</linearGradient>
	<path class="st9" d="M90.2504,78.4773l0.0396-0.0224l0.0896-0.0497h0.0255c0.1976-0.0732,0.4085-0.081,0.6042-0.0293h0.0015
		c0.247,0.0663,0.4702,0.2272,0.6087,0.4663l0.0739,0.1239v0.0303c0.073,0.197,0.0798,0.4068,0.0284,0.6008v0.003
		c-0.0665,0.2458-0.227,0.4682-0.4663,0.6068l-5.2619,3.0289c-0.2397,0.1376-0.5123,0.1668-0.7594,0.1015h-0.0029
		c-0.2466-0.0673-0.4698-0.2264-0.6087-0.4653c-0.1375-0.238-0.1659-0.5102-0.1008-0.7571c0.0655-0.2477,0.227-0.4702,0.4668-0.6086
		H84.99l5.2618-3.028L90.2504,78.4773z"/>
	<linearGradient id="SVGID_9_" gradientUnits="userSpaceOnUse" x1="86.5402" y1="86.8183" x2="94.0613" y2="86.8183">
		<stop  offset="0" style="stop-color:#FFC900"/>
		<stop  offset="1" style="stop-color:#F9D953"/>
	</linearGradient>
	<path class="st10" d="M92.956,85.3954c0.2546-0.044,0.506,0.0202,0.7036,0.1579c0.1976,0.1387,0.3434,0.3525,0.3872,0.6077
		c0.0456,0.2552-0.0189,0.5058-0.1575,0.7032c-0.139,0.1974-0.3527,0.3415-0.61,0.3865l-5.6315,0.9905h-0.0027
		c-0.2552,0.0431-0.5052-0.0193-0.7036-0.1579c-0.198-0.1387-0.3421-0.3525-0.3873-0.6077V87.473
		c-0.0446-0.2543,0.0198-0.5031,0.1589-0.7014c0.139-0.1974,0.3536-0.3415,0.61-0.3865l5.6315-0.9897H92.956z"/>
	<linearGradient id="SVGID_10_" gradientUnits="userSpaceOnUse" x1="71.1721" y1="71.7288" x2="73.3209" y2="71.7288">
		<stop  offset="0" style="stop-color:#FFC900"/>
		<stop  offset="1" style="stop-color:#F9D953"/>
	</linearGradient>
	<path class="st11" d="M71.1721,68.4894c0-0.2962,0.1199-0.5643,0.3145-0.7583c0.1942-0.1941,0.4625-0.3119,0.7603-0.3119
		c0.2955,0,0.564,0.1178,0.7587,0.3119c0.1935,0.194,0.3155,0.4621,0.3155,0.7583v6.4779c0,0.2951-0.1219,0.5622-0.3155,0.7573
		c-0.1947,0.1929-0.4631,0.3139-0.7587,0.3139c-0.2978,0-0.5661-0.121-0.7603-0.3139c-0.1946-0.1952-0.3145-0.4622-0.3145-0.7573
		V68.4894z"/>
	<linearGradient id="SVGID_11_" gradientUnits="userSpaceOnUse" x1="63.8795" y1="72.8272" x2="68.0742" y2="72.8272">
		<stop  offset="0" style="stop-color:#FFC900"/>
		<stop  offset="1" style="stop-color:#F9D953"/>
	</linearGradient>
	<path class="st12" d="M63.941,70.2518c-0.0965-0.2657-0.0759-0.5464,0.0367-0.7839c0.1107-0.2376,0.3133-0.4341,0.5803-0.5303
		c0.267-0.0953,0.5486-0.0752,0.7875,0.0351c0.2393,0.1122,0.4359,0.3137,0.5325,0.5814l2.1344,5.8482l0.0352,0.0933v0.022
		c0.0538,0.2307,0.0246,0.4652-0.0704,0.6687c-0.1116,0.2376-0.3147,0.4341-0.5812,0.5313l-0.0935,0.0331h-0.0237
		c-0.2302,0.0542-0.4666,0.025-0.6692-0.0692c-0.2318-0.1082-0.4244-0.3007-0.5234-0.5564v-0.0009l-0.003-0.0071l-0.004-0.009
		l-0.0015-0.007L63.941,70.2518z"/>
	<linearGradient id="SVGID_12_" gradientUnits="userSpaceOnUse" x1="57.2669" y1="75.9984" x2="63.6611" y2="75.9984">
		<stop  offset="0" style="stop-color:#FFC900"/>
		<stop  offset="1" style="stop-color:#F9D953"/>
	</linearGradient>
	<path class="st13" d="M57.5186,74.1817c-0.1917-0.229-0.2722-0.5141-0.2473-0.7896c0.0249-0.2765,0.1535-0.5457,0.3823-0.7346
		c0.2292-0.191,0.5146-0.2712,0.791-0.2459c0.2795,0.0242,0.5464,0.1541,0.7385,0.381l4.2265,5.0211
		c0.191,0.2281,0.272,0.513,0.2472,0.7885c-0.0239,0.2777-0.1546,0.5446-0.3838,0.7357c-0.2282,0.19-0.5141,0.2713-0.7904,0.2481
		c-0.278-0.0254-0.5464-0.1552-0.737-0.3832L57.5186,74.1817z"/>
	<linearGradient id="SVGID_13_" gradientUnits="userSpaceOnUse" x1="52.7361" y1="80.8566" x2="60.0042" y2="80.8566">
		<stop  offset="0" style="stop-color:#FFC900"/>
		<stop  offset="1" style="stop-color:#F9D953"/>
	</linearGradient>
	<path class="st14" d="M53.2361,80.2069c-0.2378-0.1385-0.3997-0.3609-0.4663-0.6067v-0.003
		c-0.0656-0.2448-0.0373-0.5169,0.1017-0.755c0.139-0.239,0.362-0.401,0.6091-0.4663h0.001
		c0.2486-0.0654,0.5211-0.0362,0.7594,0.1014l5.2633,3.0289c0.2378,0.1384,0.3997,0.3609,0.4662,0.6086
		c0.0655,0.2468,0.0372,0.519-0.1018,0.7571c-0.1385,0.2389-0.362,0.398-0.6091,0.4653h-0.0014
		c-0.2466,0.0653-0.5207,0.0361-0.7589-0.1015L53.2361,80.2069z"/>
	<linearGradient id="SVGID_14_" gradientUnits="userSpaceOnUse" x1="50.4306" y1="86.8183" x2="57.9509" y2="86.8183">
		<stop  offset="0" style="stop-color:#FFC900"/>
		<stop  offset="1" style="stop-color:#F9D953"/>
	</linearGradient>
	<path class="st15" d="M51.2127,87.2508c-0.2565-0.0441-0.4705-0.1891-0.6105-0.3865c-0.1386-0.1973-0.2022-0.4471-0.1575-0.7013
		c0.0455-0.257,0.1891-0.4708,0.3872-0.6095c0.198-0.1386,0.4499-0.2019,0.7063-0.1579l5.6311,0.9896
		c0.2565,0.0449,0.4701,0.189,0.6101,0.3864c0.139,0.1982,0.2016,0.4471,0.1575,0.7013v0.0027
		c-0.0447,0.2552-0.1893,0.4691-0.3868,0.6077c-0.1979,0.1395-0.4489,0.2011-0.704,0.1579h-0.0027L51.2127,87.2508z"/>
	<linearGradient id="SVGID_15_" gradientUnits="userSpaceOnUse" x1="43.9675" y1="140.3815" x2="100.5238" y2="140.3815">
		<stop  offset="0" style="stop-color:#9B1038"/>
		<stop  offset="1" style="stop-color:#B21449"/>
	</linearGradient>
	<rect x="43.9675" y="135.8132" class="st16" width="56.5563" height="9.1366"/>
	<linearGradient id="SVGID_16_" gradientUnits="userSpaceOnUse" x1="46.9886" y1="136.7997" x2="97.5044" y2="136.7997">
		<stop  offset="0" style="stop-color:#0A4166"/>
		<stop  offset="1" style="stop-color:#0D547C"/>
	</linearGradient>
	<rect x="46.9886" y="135.8132" class="st17" width="50.5157" height="1.9732"/>
	<linearGradient id="SVGID_17_" gradientUnits="userSpaceOnUse" x1="94.6562" y1="138.0976" x2="95.7325" y2="138.0976">
		<stop  offset="0" style="stop-color:#0A4166"/>
		<stop  offset="1" style="stop-color:#0D547C"/>
	</linearGradient>
	<rect x="94.6562" y="135.8132" class="st18" width="1.0763" height="4.5689"/>
	<linearGradient id="SVGID_18_" gradientUnits="userSpaceOnUse" x1="91.1265" y1="138.0976" x2="92.2022" y2="138.0976">
		<stop  offset="0" style="stop-color:#0A4166"/>
		<stop  offset="1" style="stop-color:#0D547C"/>
	</linearGradient>
	<rect x="91.1265" y="135.8132" class="st19" width="1.0757" height="4.5689"/>
	<linearGradient id="SVGID_19_" gradientUnits="userSpaceOnUse" x1="87.5934" y1="138.0976" x2="88.672" y2="138.0976">
		<stop  offset="0" style="stop-color:#0A4166"/>
		<stop  offset="1" style="stop-color:#0D547C"/>
	</linearGradient>
	<rect x="87.5934" y="135.8132" class="st20" width="1.0786" height="4.5689"/>
	<linearGradient id="SVGID_20_" gradientUnits="userSpaceOnUse" x1="84.0643" y1="138.0976" x2="85.1417" y2="138.0976">
		<stop  offset="0" style="stop-color:#0A4166"/>
		<stop  offset="1" style="stop-color:#0D547C"/>
	</linearGradient>
	<rect x="84.0643" y="135.8132" class="st21" width="1.0774" height="4.5689"/>
	<linearGradient id="SVGID_21_" gradientUnits="userSpaceOnUse" x1="80.5341" y1="138.0976" x2="81.6102" y2="138.0976">
		<stop  offset="0" style="stop-color:#0A4166"/>
		<stop  offset="1" style="stop-color:#0D547C"/>
	</linearGradient>
	<rect x="80.5341" y="135.8132" class="st22" width="1.0762" height="4.5689"/>
	<linearGradient id="SVGID_22_" gradientUnits="userSpaceOnUse" x1="77.0038" y1="138.0976" x2="78.0794" y2="138.0976">
		<stop  offset="0" style="stop-color:#0A4166"/>
		<stop  offset="1" style="stop-color:#0D547C"/>
	</linearGradient>
	<rect x="77.0038" y="135.8132" class="st23" width="1.0756" height="4.5689"/>
	<linearGradient id="SVGID_23_" gradientUnits="userSpaceOnUse" x1="73.4729" y1="138.0976" x2="74.5497" y2="138.0976">
		<stop  offset="0" style="stop-color:#0A4166"/>
		<stop  offset="1" style="stop-color:#0D547C"/>
	</linearGradient>
	<rect x="73.4729" y="135.8132" class="st24" width="1.0768" height="4.5689"/>
	<linearGradient id="SVGID_24_" gradientUnits="userSpaceOnUse" x1="69.9421" y1="138.0976" x2="71.0195" y2="138.0976">
		<stop  offset="0" style="stop-color:#0A4166"/>
		<stop  offset="1" style="stop-color:#0D547C"/>
	</linearGradient>
	<rect x="69.9421" y="135.8132" class="st25" width="1.0774" height="4.5689"/>
	<linearGradient id="SVGID_25_" gradientUnits="userSpaceOnUse" x1="66.4119" y1="138.0976" x2="67.4875" y2="138.0976">
		<stop  offset="0" style="stop-color:#0A4166"/>
		<stop  offset="1" style="stop-color:#0D547C"/>
	</linearGradient>
	<rect x="66.4119" y="135.8132" class="st26" width="1.0756" height="4.5689"/>
	<linearGradient id="SVGID_26_" gradientUnits="userSpaceOnUse" x1="62.8805" y1="138.0976" x2="63.9572" y2="138.0976">
		<stop  offset="0" style="stop-color:#0A4166"/>
		<stop  offset="1" style="stop-color:#0D547C"/>
	</linearGradient>
	<rect x="62.8805" y="135.8132" class="st27" width="1.0768" height="4.5689"/>
	<linearGradient id="SVGID_27_" gradientUnits="userSpaceOnUse" x1="59.3514" y1="138.0976" x2="60.4276" y2="138.0976">
		<stop  offset="0" style="stop-color:#0A4166"/>
		<stop  offset="1" style="stop-color:#0D547C"/>
	</linearGradient>
	<rect x="59.3514" y="135.8132" class="st28" width="1.0762" height="4.5689"/>
	<linearGradient id="SVGID_28_" gradientUnits="userSpaceOnUse" x1="55.8199" y1="138.0976" x2="56.8967" y2="138.0976">
		<stop  offset="0" style="stop-color:#0A4166"/>
		<stop  offset="1" style="stop-color:#0D547C"/>
	</linearGradient>
	<rect x="55.8199" y="135.8132" class="st29" width="1.0768" height="4.5689"/>
	<linearGradient id="SVGID_29_" gradientUnits="userSpaceOnUse" x1="52.2891" y1="138.0976" x2="53.3671" y2="138.0976">
		<stop  offset="0" style="stop-color:#0A4166"/>
		<stop  offset="1" style="stop-color:#0D547C"/>
	</linearGradient>
	<rect x="52.29" y="135.8132" class="st30" width="1.0762" height="4.5689"/>
	<linearGradient id="SVGID_30_" gradientUnits="userSpaceOnUse" x1="48.7582" y1="138.0976" x2="49.8351" y2="138.0976">
		<stop  offset="0" style="stop-color:#0A4166"/>
		<stop  offset="1" style="stop-color:#0D547C"/>
	</linearGradient>
	<rect x="48.7582" y="135.8132" class="st31" width="1.0769" height="4.5689"/>
	<linearGradient id="SVGID_31_" gradientUnits="userSpaceOnUse" x1="89.9455" y1="39.3431" x2="146.1823" y2="39.3431">
		<stop  offset="0" style="stop-color:#FFC900"/>
		<stop  offset="1" style="stop-color:#F9D953"/>
	</linearGradient>
	<rect x="89.9455" y="22.5988" class="st32" width="56.2368" height="33.4886"/>
	<linearGradient id="SVGID_32_" gradientUnits="userSpaceOnUse" x1="102.0462" y1="60.6091" x2="119.3241" y2="60.6091">
		<stop  offset="0" style="stop-color:#FFC900"/>
		<stop  offset="1" style="stop-color:#F9D953"/>
	</linearGradient>
	<polygon class="st33" points="119.3241,51.6095 102.0462,69.8177 107.8249,51.4004 	"/>
	<linearGradient id="SVGID_33_" gradientUnits="userSpaceOnUse" x1="93.5202" y1="28.4325" x2="102.672" y2="28.4325">
		<stop  offset="0" style="stop-color:#9B1038"/>
		<stop  offset="1" style="stop-color:#B21449"/>
	</linearGradient>
	<rect x="93.5202" y="26.6077" class="st34" width="9.1518" height="3.6497"/>
	<rect x="106.6942" y="26.6077" class="st2" width="25.0975" height="3.6497"/>
	<rect x="134.5468" y="26.6077" class="st2" width="8.0608" height="3.6497"/>
	<rect x="106.6942" y="33.907" class="st2" width="11.0803" height="3.6497"/>
	<rect x="119.278" y="33.907" class="st2" width="3.1829" height="3.6497"/>
	<rect x="123.693" y="33.907" class="st2" width="2.9251" height="3.6497"/>
	<linearGradient id="SVGID_34_" gradientUnits="userSpaceOnUse" x1="93.5202" y1="43.7614" x2="102.672" y2="43.7614">
		<stop  offset="0" style="stop-color:#0A4166"/>
		<stop  offset="1" style="stop-color:#0D547C"/>
	</linearGradient>
	<rect x="93.5202" y="41.9365" class="st35" width="9.1518" height="3.6497"/>
	<rect x="106.6942" y="41.9365" class="st2" width="8.0288" height="3.6497"/>
	<rect x="121.5364" y="41.9365" class="st2" width="6.7766" height="3.6497"/>
	<rect x="106.6942" y="49.2359" class="st2" width="12.3775" height="3.6497"/>
	<rect x="128.0416" y="49.2359" class="st2" width="11.0803" height="3.6497"/>
	<rect x="116.6076" y="41.9365" class="st2" width="3.6956" height="3.6497"/>
	<rect x="129.4426" y="41.9365" class="st2" width="13.165" height="3.6497"/>
	<rect x="120.5568" y="49.2359" class="st2" width="6.1135" height="3.6497"/>
</g>
</svg>
