<?xml version="1.0" encoding="utf-8"?>
<!-- Generator: Adobe Illustrator 19.1.0, SVG Export Plug-In . SVG Version: 6.00 Build 0)  -->
<svg version="1.1" id="Слой_1" xmlns="http://www.w3.org/2000/svg" xmlns:xlink="http://www.w3.org/1999/xlink" x="0px" y="0px"
	 viewBox="0 0 165 180" style="enable-background:new 0 0 165 180;" xml:space="preserve">
<style type="text/css">
	.st0{fill:#D1DCE0;}
	.st1{fill:#0A4166;}
	.st2{fill-rule:evenodd;clip-rule:evenodd;fill:url(#SVGID_1_);}
	.st3{fill-rule:evenodd;clip-rule:evenodd;fill:url(#SVGID_2_);}
	.st4{fill:#FFFFFF;}
	.st5{fill-rule:evenodd;clip-rule:evenodd;fill:url(#SVGID_3_);}
	.st6{fill-rule:evenodd;clip-rule:evenodd;fill:url(#SVGID_4_);}
	.st7{fill:url(#SVGID_5_);}
	.st8{fill:url(#SVGID_6_);}
	.st9{fill:url(#SVGID_7_);}
	.st10{fill:#54AF61;}
</style>
<polygon class="st0" points="0,0 53.7248,90.683 0,180 111.275,180 165,90.683 111.275,0 "/>
<path class="st1" d="M65.8733,10.7006"/>
<g>
	<g>
		<linearGradient id="SVGID_1_" gradientUnits="userSpaceOnUse" x1="30.4493" y1="45.3563" x2="126.0844" y2="45.3563">
			<stop  offset="0" style="stop-color:#9B1038"/>
			<stop  offset="1" style="stop-color:#B21449"/>
		</linearGradient>
		<path class="st2" d="M126.0844,54.5886c0,2.1854-1.7686,3.9571-3.9485,3.9571h-87.738c-2.1813,0-3.9485-1.7717-3.9485-3.9571
			V36.124c0-2.1854,1.7672-3.9571,3.9485-3.9571h87.738c2.18,0,3.9485,1.7717,3.9485,3.9571V54.5886z"/>
		<linearGradient id="SVGID_2_" gradientUnits="userSpaceOnUse" x1="30.4493" y1="76.5705" x2="126.0844" y2="76.5705">
			<stop  offset="0" style="stop-color:#9B1038"/>
			<stop  offset="1" style="stop-color:#B21449"/>
		</linearGradient>
		<path class="st3" d="M126.0844,85.8028c0,2.1854-1.7686,3.9571-3.9485,3.9571h-87.738c-2.1813,0-3.9485-1.7717-3.9485-3.9571
			V67.3382c0-2.1854,1.7672-3.9571,3.9485-3.9571h87.738c2.18,0,3.9485,1.7717,3.9485,3.9571V85.8028z"/>
		<path class="st4" d="M52.3836,45.3529c0,0.7287-0.5889,1.3188-1.3167,1.3188H36.5907c-0.7263,0-1.3166-0.59-1.3166-1.3188v-5.7152
			c0-0.7287,0.5903-1.3189,1.3166-1.3189h14.4762c0.7279,0,1.3167,0.5902,1.3167,1.3189V45.3529z"/>
		<linearGradient id="SVGID_3_" gradientUnits="userSpaceOnUse" x1="30.4493" y1="76.5705" x2="126.0844" y2="76.5705">
			<stop  offset="0" style="stop-color:#0A4166"/>
			<stop  offset="1" style="stop-color:#0D547C"/>
		</linearGradient>
		<path class="st5" d="M126.0844,85.8025c0,2.1855-1.7686,3.9571-3.9485,3.9571h-87.738c-2.1813,0-3.9485-1.7716-3.9485-3.9571
			V67.338c0-2.1855,1.7672-3.9565,3.9485-3.9565h87.738c2.18,0,3.9485,1.771,3.9485,3.9565V85.8025z"/>
		<path class="st4" d="M52.3836,76.5669c0,0.7286-0.5889,1.3194-1.3167,1.3194H36.5907c-0.7263,0-1.3166-0.5909-1.3166-1.3194
			v-5.7154c0-0.7279,0.5903-1.3187,1.3166-1.3187h14.4762c0.7279,0,1.3167,0.5909,1.3167,1.3187V76.5669z"/>
		<linearGradient id="SVGID_4_" gradientUnits="userSpaceOnUse" x1="30.4493" y1="107.7845" x2="126.0844" y2="107.7845">
			<stop  offset="0" style="stop-color:#0A4166"/>
			<stop  offset="1" style="stop-color:#0D547C"/>
		</linearGradient>
		<path class="st6" d="M126.0844,117.0164c0,2.1854-1.7686,3.9571-3.9485,3.9571h-87.738c-2.1813,0-3.9485-1.7717-3.9485-3.9571
			V98.5518c0-2.1847,1.7672-3.9564,3.9485-3.9564h87.738c2.18,0,3.9485,1.7717,3.9485,3.9564V117.0164z"/>
		<path class="st4" d="M52.3836,107.7814c0,0.728-0.5889,1.3187-1.3167,1.3187H36.5907c-0.7263,0-1.3166-0.5907-1.3166-1.3187
			v-5.7159c0-0.728,0.5903-1.3187,1.3166-1.3187h14.4762c0.7279,0,1.3167,0.5907,1.3167,1.3187V107.7814z"/>
	</g>
	<g>
		<linearGradient id="SVGID_5_" gradientUnits="userSpaceOnUse" x1="34.1781" y1="142.2653" x2="122.3544" y2="142.2653">
			<stop  offset="0" style="stop-color:#0A4166"/>
			<stop  offset="1" style="stop-color:#0D547C"/>
		</linearGradient>
		<rect x="34.1781" y="138.9682" class="st7" width="88.1763" height="6.594"/>
		<linearGradient id="SVGID_6_" gradientUnits="userSpaceOnUse" x1="74.9759" y1="133.6918" x2="81.5564" y2="133.6918">
			<stop  offset="0" style="stop-color:#0A4166"/>
			<stop  offset="1" style="stop-color:#0D547C"/>
		</linearGradient>
		<rect x="74.9759" y="124.7894" class="st8" width="6.5805" height="17.8048"/>
		<linearGradient id="SVGID_7_" gradientUnits="userSpaceOnUse" x1="66.2573" y1="141.4822" x2="90.275" y2="141.4822">
			<stop  offset="0" style="stop-color:#0A4166"/>
			<stop  offset="1" style="stop-color:#0D547C"/>
		</linearGradient>
		<rect x="66.2573" y="135.1539" class="st9" width="24.0177" height="12.6566"/>
	</g>
</g>
<polygon class="st10" points="145.2776,59.6383 142.1279,56.4817 120.8258,77.83 110.6731,67.6553 107.5235,70.8119 
	120.7841,84.1013 120.8258,84.0596 120.8674,84.1013 "/>
</svg>
