<?xml version="1.0" encoding="utf-8"?>
<!-- Generator: Adobe Illustrator 19.1.0, SVG Export Plug-In . SVG Version: 6.00 Build 0)  -->
<svg version="1.1" id="Слой_1" xmlns="http://www.w3.org/2000/svg" xmlns:xlink="http://www.w3.org/1999/xlink" x="0px" y="0px"
	 viewBox="0 0 165 180" style="enable-background:new 0 0 165 180;" xml:space="preserve">
<style type="text/css">
	.st0{fill:#D1DCE0;}
	.st1{fill:#B8B8B8;}
	.st2{fill:#F2F2F2;}
	.st3{fill:none;}
	.st4{fill:url(#SVGID_1_);}
	.st5{fill:url(#SVGID_2_);}
	.st6{fill:url(#SVGID_3_);}
	.st7{fill:#EFC430;}
	.st8{fill:url(#SVGID_4_);}
	.st9{opacity:0.54;fill:#FFFFFF;}
	.st10{fill:url(#SVGID_5_);}
	.st11{fill:url(#SVGID_6_);}
	.st12{fill:url(#SVGID_7_);}
	.st13{fill:url(#SVGID_8_);}
	.st14{fill:#CB2628;}
	.st15{fill:url(#SVGID_9_);}
	.st16{fill:url(#SVGID_10_);}
	.st17{fill:url(#SVGID_11_);}
	.st18{fill:url(#SVGID_12_);}
	.st19{fill:url(#SVGID_13_);}
	.st20{fill:url(#SVGID_14_);}
	.st21{fill:url(#SVGID_15_);}
	.st22{fill:#6D0D2B;}
	.st23{fill:url(#SVGID_16_);}
	.st24{fill:url(#SVGID_17_);}
	.st25{fill:url(#SVGID_18_);}
	.st26{fill:url(#SVGID_19_);}
	.st27{fill:url(#SVGID_20_);}
	.st28{fill:url(#SVGID_21_);}
	.st29{fill:url(#SVGID_22_);}
	.st30{fill:url(#SVGID_23_);}
	.st31{fill:url(#SVGID_24_);}
	.st32{fill:url(#SVGID_25_);}
	.st33{fill:url(#SVGID_26_);}
	.st34{fill:url(#SVGID_27_);}
	.st35{fill:url(#SVGID_28_);}
	.st36{opacity:0.51;fill:#FFFFFF;}
	.st37{fill:url(#SVGID_29_);}
	.st38{fill:url(#SVGID_30_);}
	.st39{fill:url(#SVGID_31_);}
	.st40{fill:url(#SVGID_32_);}
	.st41{fill:url(#SVGID_33_);}
	.st42{fill:url(#SVGID_34_);}
	.st43{fill:url(#SVGID_35_);}
	.st44{fill:url(#SVGID_36_);}
	.st45{fill:url(#SVGID_37_);}
	.st46{fill:url(#SVGID_38_);}
	.st47{fill:url(#SVGID_39_);}
	.st48{fill:url(#SVGID_40_);}
	.st49{fill:url(#SVGID_41_);}
	.st50{fill:url(#SVGID_42_);}
	.st51{fill:url(#SVGID_43_);}
	.st52{fill:url(#SVGID_44_);}
	.st53{fill:url(#SVGID_45_);}
	.st54{fill:url(#SVGID_46_);}
	.st55{fill:url(#SVGID_47_);}
	.st56{fill:url(#SVGID_48_);}
	.st57{fill:url(#SVGID_49_);}
	.st58{fill:url(#SVGID_50_);}
	.st59{fill:url(#SVGID_51_);}
	.st60{fill:url(#SVGID_52_);}
	.st61{fill:url(#SVGID_53_);}
	.st62{fill:url(#SVGID_54_);}
	.st63{fill:url(#SVGID_55_);}
	.st64{fill:url(#SVGID_56_);}
	.st65{fill:url(#SVGID_57_);}
	.st66{fill:url(#SVGID_58_);}
	.st67{fill:url(#SVGID_59_);}
	.st68{fill:url(#SVGID_60_);}
	.st69{fill:url(#SVGID_61_);}
	.st70{fill:url(#SVGID_62_);}
	.st71{fill:url(#SVGID_63_);}
	.st72{fill:url(#SVGID_64_);}
	.st73{fill:url(#SVGID_65_);}
	.st74{fill:url(#SVGID_66_);}
</style>
<polygon class="st0" points="165,0 111.2752,90.683 165,180 53.725,180 0,90.683 53.725,0 "/>
<g>
	<g>
		<rect x="31.7296" y="87.2021" class="st1" width="91.0183" height="3.7315"/>
		<rect x="32.5726" y="145.458" class="st1" width="93.0639" height="3.7315"/>
		<g>
			<path class="st2" d="M52.8823,50.0247v-4.785H41.7128v4.785c-4.4026,1.674-7.532,5.9075-7.532,10.8821v15.5832
				c0,6.4462,5.2409,11.6686,11.7011,11.6686h2.8333c6.4602,0,11.6991-5.2224,11.6991-11.6686V60.9069
				C60.4143,55.9322,57.2869,51.6988,52.8823,50.0247"/>
			<polyline class="st3" points="60.4143,45.2398 34.1808,45.2398 34.1808,88.1588 			"/>
			<linearGradient id="SVGID_1_" gradientUnits="userSpaceOnUse" x1="44.8747" y1="37.8046" x2="49.7246" y2="37.8046">
				<stop  offset="0" style="stop-color:#9B1038"/>
				<stop  offset="1" style="stop-color:#B21449"/>
			</linearGradient>
			<rect x="44.8747" y="34.8077" class="st4" width="4.8499" height="5.9937"/>
			<linearGradient id="SVGID_2_" gradientUnits="userSpaceOnUse" x1="38.3758" y1="37.2208" x2="49.7246" y2="37.2208">
				<stop  offset="0" style="stop-color:#9B1038"/>
				<stop  offset="1" style="stop-color:#B21449"/>
			</linearGradient>
			<polygon class="st5" points="40.0421,33.6358 40.0421,33.6488 38.3758,35.3076 39.2099,36.1372 40.5369,34.8077 47.2997,34.8077 
				47.2997,40.8058 49.7246,40.8058 49.7246,34.8077 49.7246,33.6358 			"/>
			<linearGradient id="SVGID_3_" gradientUnits="userSpaceOnUse" x1="35.0214" y1="74.6331" x2="59.5713" y2="74.6331">
				<stop  offset="0" style="stop-color:#FFC900"/>
				<stop  offset="1" style="stop-color:#F9D953"/>
			</linearGradient>
			<path class="st6" d="M35.0214,62.357v13.6332c0,6.0347,4.9061,10.919,10.9555,10.919h2.6476
				c6.0452,0,10.9469-4.8842,10.9469-10.919V62.357H35.0214z"/>
			<path class="st7" d="M59.5713,62.357c0,0.7713-5.4939,1.4003-12.2717,1.4003c-6.78,0-12.2783-0.629-12.2783-1.4003
				c0-0.7715,5.4983-1.3963,12.2783-1.3963C54.0774,60.9607,59.5713,61.5855,59.5713,62.357"/>
			<linearGradient id="SVGID_4_" gradientUnits="userSpaceOnUse" x1="40.4203" y1="69.0691" x2="54.1768" y2="69.0691">
				<stop  offset="0" style="stop-color:#9B1038"/>
				<stop  offset="1" style="stop-color:#B21449"/>
			</linearGradient>
			<path class="st8" d="M54.1768,73.7907c0,3.7831-3.0798,6.8554-6.8771,6.8554c-3.7995,0-6.8793-3.0723-6.8793-6.8554v-9.443
				c0-3.7854,3.0798-6.8554,6.8793-6.8554c3.7973,0,6.8771,3.0701,6.8771,6.8554V73.7907z"/>
			<path class="st9" d="M46.9927,51.5437c0,0-0.1144,0.0258-0.3415,0.0646c-0.2204,0.058-0.5641,0.071-0.966,0.1853
				c-0.3999,0.1207-0.8797,0.2219-1.4113,0.4309c-0.1339,0.0474-0.2722,0.0946-0.415,0.1443
				c-0.1361,0.0624-0.2789,0.1271-0.4214,0.1917c-0.2919,0.1251-0.5922,0.2586-0.8926,0.4439
				c-0.3028,0.1573-0.6139,0.336-0.912,0.5557c-0.1491,0.1057-0.3134,0.2005-0.4648,0.3104
				c-0.1469,0.1249-0.2961,0.2433-0.4517,0.3704c-0.6051,0.4891-1.1778,1.0795-1.7205,1.7323
				c-0.5316,0.657-1.0331,1.3833-1.4242,2.1845c-0.3955,0.8037-0.7024,1.6698-0.8667,2.5768
				c-0.0325,0.2261-0.0885,0.4481-0.1124,0.6786l-0.0563,0.6808c-0.0409,0.4567-0.0281,0.9524-0.0496,1.4155
				c-0.0239,0.9524-0.0476,1.881-0.0693,2.7835c-0.0409,1.8077-0.1015,3.4904-0.1514,4.9316
				c-0.0949,2.8848-0.1576,4.8108-0.1576,4.8108h-0.1363c0,0-0.0604-1.926-0.1598-4.8108c-0.0475-1.4413-0.1102-3.1239-0.147-4.9316
				c-0.0261-0.9025-0.0476-1.8311-0.0715-2.7835c-0.0042-0.4761-0.0432-0.935-0.0237-1.4371l0.0237-0.7541
				c0.0131-0.2497,0.0606-0.4975,0.0865-0.7519c0.0367-0.5041,0.1815-0.9846,0.2897-1.4821
				c0.1512-0.4805,0.2895-0.9674,0.4884-1.4243c0.3674-0.9306,0.9054-1.7687,1.4826-2.5358
				c0.6137-0.7347,1.2838-1.3875,2.0122-1.8808c0.1793-0.1185,0.3587-0.2477,0.5316-0.364
				c0.1795-0.1121,0.3652-0.2111,0.5447-0.3104c0.3566-0.2089,0.7197-0.3684,1.074-0.5083c0.3437-0.1595,0.6938-0.2586,1.0267-0.349
				c0.1642-0.0454,0.3242-0.0949,0.482-0.1337c0.1598-0.0344,0.3134-0.0602,0.4625-0.0882
				c0.5987-0.1185,1.1433-0.1401,1.5778-0.1487c0.4278-0.0108,0.7584,0.0302,0.9855,0.043c0.2291,0.0194,0.3501,0.028,0.3501,0.028
				L46.9927,51.5437z"/>
			<path class="st2" d="M47.2997,76.5484c0,1.0557-0.8622,1.9088-1.9215,1.9088c-1.059,0-1.9192-0.8531-1.9192-1.9088
				c0-1.0601,0.8602-1.9176,1.9192-1.9176C46.4374,74.6308,47.2997,75.4883,47.2997,76.5484"/>
			<path class="st2" d="M52.5581,74.5403c0,1.3875-1.1283,2.5122-2.5179,2.5122c-1.3963,0-2.5243-1.1247-2.5243-2.5122
				c0-1.3916,1.128-2.5208,2.5243-2.5208C51.4298,72.0195,52.5581,73.1487,52.5581,74.5403"/>
			<path class="st2" d="M47.0361,71.3754c0,0.3578-0.2941,0.6442-0.6529,0.6442c-0.3565,0-0.6482-0.2864-0.6482-0.6442
				c0-0.3576,0.2917-0.6484,0.6482-0.6484C46.7419,70.727,47.0361,71.0177,47.0361,71.3754"/>
			<path class="st2" d="M49.9386,67.5792c0,0.4827-0.3913,0.8814-0.8797,0.8814c-0.4907,0-0.8861-0.3987-0.8861-0.8814
				c0-0.4889,0.3955-0.8789,0.8861-0.8789C49.5473,66.7003,49.9386,67.0903,49.9386,67.5792"/>
			<rect x="42.1749" y="63.0581" class="st2" width="10.2494" height="1.3983"/>
		</g>
		<g>
			<path class="st2" d="M82.6318,50.2129v-4.785H71.4623v4.785c-4.4026,1.674-7.532,5.9075-7.532,10.8821v15.5832
				c0,6.4462,5.2409,11.6686,11.7011,11.6686h2.8333c6.4602,0,11.6991-5.2224,11.6991-11.6686V61.095
				C90.1638,56.1203,87.0364,51.8869,82.6318,50.2129"/>
			<polyline class="st3" points="90.1638,45.4279 63.9303,45.4279 63.9303,88.3469 			"/>
			<linearGradient id="SVGID_5_" gradientUnits="userSpaceOnUse" x1="74.6242" y1="38.0769" x2="79.4741" y2="38.0769">
				<stop  offset="0" style="stop-color:#9B1038"/>
				<stop  offset="1" style="stop-color:#B21449"/>
			</linearGradient>
			<rect x="74.6242" y="34.9959" class="st10" width="4.8499" height="6.162"/>
			<linearGradient id="SVGID_6_" gradientUnits="userSpaceOnUse" x1="68.1253" y1="37.409" x2="79.4741" y2="37.409">
				<stop  offset="0" style="stop-color:#9B1038"/>
				<stop  offset="1" style="stop-color:#B21449"/>
			</linearGradient>
			<polygon class="st11" points="69.7916,33.8239 69.7916,33.837 68.1253,35.4958 68.9594,36.3253 70.2864,34.9959 77.0491,34.9959 
				77.0491,40.994 79.4741,40.994 79.4741,34.9959 79.4741,33.8239 			"/>
			<linearGradient id="SVGID_7_" gradientUnits="userSpaceOnUse" x1="64.7709" y1="74.8212" x2="89.3208" y2="74.8212">
				<stop  offset="0" style="stop-color:#FFC900"/>
				<stop  offset="1" style="stop-color:#F9D953"/>
			</linearGradient>
			<path class="st12" d="M64.7709,62.5451v13.6332c0,6.0347,4.9061,10.919,10.9555,10.919h2.6476
				c6.0452,0,10.9469-4.8842,10.9469-10.919V62.5451H64.7709z"/>
			<path class="st7" d="M89.3208,62.5451c0,0.7713-5.4939,1.4003-12.2717,1.4003c-6.78,0-12.2783-0.629-12.2783-1.4003
				c0-0.7715,5.4983-1.3963,12.2783-1.3963C83.8269,61.1488,89.3208,61.7736,89.3208,62.5451"/>
			<linearGradient id="SVGID_8_" gradientUnits="userSpaceOnUse" x1="70.1698" y1="69.2573" x2="83.9263" y2="69.2573">
				<stop  offset="0" style="stop-color:#9B1038"/>
				<stop  offset="1" style="stop-color:#B21449"/>
			</linearGradient>
			<path class="st13" d="M83.9263,73.9788c0,3.7831-3.0798,6.8554-6.8771,6.8554c-3.7995,0-6.8793-3.0723-6.8793-6.8554v-9.443
				c0-3.7854,3.0798-6.8554,6.8793-6.8554c3.7973,0,6.8771,3.0701,6.8771,6.8554V73.9788z"/>
			<path class="st9" d="M76.7422,51.7318c0,0-0.1144,0.0258-0.3415,0.0646c-0.2204,0.058-0.5641,0.071-0.966,0.1853
				c-0.3999,0.1207-0.8797,0.2219-1.4113,0.4309c-0.1339,0.0474-0.2722,0.0946-0.415,0.1443
				c-0.1361,0.0624-0.2789,0.1271-0.4214,0.1917c-0.2919,0.1251-0.5922,0.2586-0.8926,0.4439
				c-0.3028,0.1573-0.6139,0.336-0.912,0.5557c-0.1491,0.1057-0.3134,0.2005-0.4648,0.3104
				c-0.1469,0.1249-0.2961,0.2433-0.4517,0.3704c-0.6051,0.4891-1.1778,1.0795-1.7205,1.7323
				c-0.5316,0.657-1.0331,1.3833-1.4242,2.1845c-0.3955,0.8037-0.7024,1.6698-0.8667,2.5768
				c-0.0325,0.2261-0.0885,0.4481-0.1124,0.6786l-0.0563,0.6808c-0.0409,0.4567-0.0281,0.9524-0.0496,1.4155
				c-0.0239,0.9524-0.0476,1.881-0.0693,2.7835c-0.0409,1.8077-0.1015,3.4904-0.1514,4.9316
				c-0.0949,2.8848-0.1576,4.8108-0.1576,4.8108h-0.1363c0,0-0.0604-1.926-0.1598-4.8108c-0.0475-1.4413-0.1102-3.1239-0.147-4.9316
				c-0.0261-0.9025-0.0476-1.8311-0.0715-2.7835c-0.0042-0.4761-0.0432-0.935-0.0237-1.4371l0.0237-0.7541
				c0.0131-0.2497,0.0606-0.4975,0.0865-0.7519c0.0367-0.5041,0.1815-0.9846,0.2897-1.4821
				c0.1512-0.4805,0.2895-0.9674,0.4884-1.4243c0.3674-0.9306,0.9054-1.7687,1.4826-2.5358
				c0.6137-0.7347,1.2838-1.3875,2.0122-1.8808c0.1793-0.1185,0.3587-0.2478,0.5316-0.364
				c0.1795-0.1121,0.3652-0.2111,0.5447-0.3104c0.3566-0.2089,0.7197-0.3684,1.074-0.5083c0.3437-0.1595,0.6938-0.2586,1.0267-0.349
				c0.1642-0.0454,0.3242-0.0949,0.482-0.1337c0.1598-0.0344,0.3134-0.0602,0.4625-0.0882
				c0.5987-0.1185,1.1433-0.1401,1.5778-0.1487c0.4278-0.0108,0.7584,0.0302,0.9855,0.043c0.2291,0.0194,0.3501,0.028,0.3501,0.028
				L76.7422,51.7318z"/>
			<path class="st2" d="M77.0491,76.7365c0,1.0556-0.8622,1.9088-1.9215,1.9088c-1.059,0-1.9192-0.8531-1.9192-1.9088
				c0-1.0601,0.8603-1.9176,1.9192-1.9176C76.1869,74.8189,77.0491,75.6764,77.0491,76.7365"/>
			<path class="st2" d="M82.3076,74.7284c0,1.3875-1.1283,2.5122-2.5179,2.5122c-1.3963,0-2.5243-1.1247-2.5243-2.5122
				c0-1.3916,1.128-2.5208,2.5243-2.5208C81.1793,72.2077,82.3076,73.3368,82.3076,74.7284"/>
			<path class="st2" d="M76.7855,71.5635c0,0.3578-0.2941,0.6442-0.6529,0.6442c-0.3565,0-0.6482-0.2864-0.6482-0.6442
				c0-0.3576,0.2917-0.6484,0.6482-0.6484C76.4914,70.9151,76.7855,71.2059,76.7855,71.5635"/>
			<path class="st2" d="M79.6881,67.7673c0,0.4827-0.3913,0.8814-0.8797,0.8814c-0.4907,0-0.8861-0.3987-0.8861-0.8814
				c0-0.4889,0.3955-0.8789,0.8861-0.8789C79.2968,66.8884,79.6881,67.2784,79.6881,67.7673"/>
			<line class="st14" x1="79.8392" y1="40.3109" x2="78.9077" y2="40.3109"/>
			<rect x="71.9244" y="63.2462" class="st2" width="10.2494" height="1.3983"/>
		</g>
		<g>
			<path class="st2" d="M112.3813,50.0247v-4.785h-11.1695v4.785c-4.4026,1.674-7.532,5.9075-7.532,10.8821v15.5832
				c0,6.4462,5.241,11.6686,11.7011,11.6686h2.8333c6.4602,0,11.6991-5.2224,11.6991-11.6686V60.9069
				C119.9133,55.9322,116.7859,51.6988,112.3813,50.0247"/>
			<polyline class="st3" points="119.9133,45.2398 93.6797,45.2398 93.6797,88.1588 			"/>
			<linearGradient id="SVGID_9_" gradientUnits="userSpaceOnUse" x1="104.3737" y1="37.8046" x2="109.2235" y2="37.8046">
				<stop  offset="0" style="stop-color:#9B1038"/>
				<stop  offset="1" style="stop-color:#B21449"/>
			</linearGradient>
			<rect x="104.3737" y="34.8077" class="st15" width="4.8499" height="5.9937"/>
			<linearGradient id="SVGID_10_" gradientUnits="userSpaceOnUse" x1="97.8748" y1="37.2208" x2="109.2235" y2="37.2208">
				<stop  offset="0" style="stop-color:#9B1038"/>
				<stop  offset="1" style="stop-color:#B21449"/>
			</linearGradient>
			<polygon class="st16" points="99.541,33.6358 99.541,33.6488 97.8748,35.3076 98.7089,36.1372 100.0359,34.8077 
				106.7986,34.8077 106.7986,40.8058 109.2235,40.8058 109.2235,34.8077 109.2235,33.6358 			"/>
			<linearGradient id="SVGID_11_" gradientUnits="userSpaceOnUse" x1="94.5203" y1="74.6331" x2="119.0703" y2="74.6331">
				<stop  offset="0" style="stop-color:#FFC900"/>
				<stop  offset="1" style="stop-color:#F9D953"/>
			</linearGradient>
			<path class="st17" d="M94.5203,62.357v13.6332c0,6.0347,4.9061,10.919,10.9555,10.919h2.6476
				c6.0452,0,10.9469-4.8842,10.9469-10.919V62.357H94.5203z"/>
			<path class="st7" d="M119.0703,62.357c0,0.7713-5.4939,1.4003-12.2717,1.4003c-6.78,0-12.2783-0.629-12.2783-1.4003
				c0-0.7715,5.4983-1.3963,12.2783-1.3963C113.5764,60.9607,119.0703,61.5855,119.0703,62.357"/>
			<linearGradient id="SVGID_12_" gradientUnits="userSpaceOnUse" x1="99.9193" y1="69.0691" x2="113.6757" y2="69.0691">
				<stop  offset="0" style="stop-color:#9B1038"/>
				<stop  offset="1" style="stop-color:#B21449"/>
			</linearGradient>
			<path class="st18" d="M113.6757,73.7907c0,3.7831-3.0798,6.8554-6.8771,6.8554c-3.7995,0-6.8793-3.0723-6.8793-6.8554v-9.443
				c0-3.7854,3.0798-6.8554,6.8793-6.8554c3.7973,0,6.8771,3.0701,6.8771,6.8554V73.7907z"/>
			<path class="st9" d="M106.4916,51.6135c0,0-0.1144,0.0258-0.3415,0.0646c-0.2204,0.058-0.5641,0.071-0.966,0.1853
				c-0.3999,0.1207-0.8797,0.2219-1.4113,0.4309c-0.1339,0.0474-0.2722,0.0946-0.415,0.1443
				c-0.1361,0.0624-0.2789,0.1271-0.4214,0.1917c-0.2919,0.1251-0.5922,0.2586-0.8926,0.4439
				c-0.3028,0.1573-0.6139,0.336-0.912,0.5557c-0.1491,0.1057-0.3134,0.2005-0.4648,0.3104
				c-0.1469,0.1249-0.2961,0.2433-0.4517,0.3704c-0.6051,0.4891-1.1778,1.0795-1.7205,1.7323
				c-0.5316,0.657-1.0331,1.3833-1.4242,2.1845c-0.3955,0.8037-0.7024,1.6698-0.8667,2.5768
				c-0.0325,0.2261-0.0885,0.4481-0.1124,0.6786l-0.0563,0.6808c-0.0409,0.4567-0.0281,0.9524-0.0496,1.4155
				c-0.0239,0.9524-0.0476,1.881-0.0693,2.7835c-0.0409,1.8077-0.1015,3.4904-0.1514,4.9316
				c-0.0949,2.8848-0.1576,4.8108-0.1576,4.8108h-0.1363c0,0-0.0604-1.926-0.1598-4.8108
				c-0.0475-1.4413-0.1102-3.1239-0.1469-4.9316c-0.0261-0.9025-0.0476-1.8311-0.0715-2.7835
				c-0.0042-0.4761-0.0432-0.935-0.0237-1.4371l0.0237-0.7541c0.0131-0.2497,0.0606-0.4975,0.0865-0.7519
				c0.0367-0.5041,0.1815-0.9846,0.2897-1.4821c0.1512-0.4805,0.2895-0.9674,0.4884-1.4243
				c0.3674-0.9306,0.9054-1.7687,1.4826-2.5358c0.6137-0.7347,1.2838-1.3875,2.0122-1.8808
				c0.1793-0.1185,0.3587-0.2478,0.5316-0.364c0.1795-0.1121,0.3652-0.2111,0.5447-0.3104c0.3566-0.2089,0.7197-0.3684,1.074-0.5083
				c0.3437-0.1595,0.6938-0.2586,1.0267-0.349c0.1642-0.0454,0.3242-0.0949,0.482-0.1337c0.1598-0.0344,0.3134-0.0602,0.4625-0.0882
				c0.5987-0.1185,1.1433-0.1401,1.5778-0.1487c0.4278-0.0108,0.7584,0.0302,0.9855,0.043c0.2291,0.0194,0.3501,0.028,0.3501,0.028
				L106.4916,51.6135z"/>
			<path class="st2" d="M106.7986,76.5484c0,1.0557-0.8622,1.9088-1.9214,1.9088c-1.059,0-1.9192-0.8531-1.9192-1.9088
				c0-1.0601,0.8603-1.9176,1.9192-1.9176C105.9364,74.6308,106.7986,75.4883,106.7986,76.5484"/>
			<path class="st2" d="M112.057,74.5403c0,1.3875-1.1283,2.5122-2.5179,2.5122c-1.3963,0-2.5243-1.1247-2.5243-2.5122
				c0-1.3916,1.128-2.5208,2.5243-2.5208C110.9288,72.0195,112.057,73.1487,112.057,74.5403"/>
			<path class="st2" d="M106.535,71.3754c0,0.3578-0.2941,0.6442-0.6529,0.6442c-0.3565,0-0.6482-0.2864-0.6482-0.6442
				c0-0.3576,0.2917-0.6484,0.6482-0.6484C106.2409,70.727,106.535,71.0177,106.535,71.3754"/>
			<path class="st2" d="M109.4376,67.5792c0,0.4827-0.3913,0.8814-0.8797,0.8814c-0.4907,0-0.8861-0.3987-0.8861-0.8814
				c0-0.4889,0.3955-0.8789,0.8861-0.8789C109.0463,66.7003,109.4376,67.0903,109.4376,67.5792"/>
			<rect x="101.6739" y="63.0581" class="st2" width="10.2494" height="1.3983"/>
		</g>
		<g>
			<linearGradient id="SVGID_13_" gradientUnits="userSpaceOnUse" x1="76.356" y1="102.012" x2="80.6829" y2="102.012">
				<stop  offset="0" style="stop-color:#0A4166"/>
				<stop  offset="1" style="stop-color:#0D547C"/>
			</linearGradient>
			<rect x="76.356" y="99.3394" class="st19" width="4.3269" height="5.3451"/>
			<linearGradient id="SVGID_14_" gradientUnits="userSpaceOnUse" x1="70.566" y1="101.4927" x2="80.6829" y2="101.4927">
				<stop  offset="0" style="stop-color:#0A4166"/>
				<stop  offset="1" style="stop-color:#0D547C"/>
			</linearGradient>
			<polyline class="st20" points="70.566,99.7853 71.3052,100.5243 72.4917,99.3394 78.5174,99.3394 78.5174,104.6845 
				80.6829,104.6845 80.6829,99.3394 80.6829,98.301 72.0422,98.301 72.0422,98.3074 70.566,99.7853 			"/>
			<path class="st2" d="M82.5913,107.9507h-3.821h-3.8148c-1.4286,9.2749-8.1846,24.328-8.1846,31.5413
				c0,7.2088,6.6784,6.095,11.9994,6.095c5.3297,0,12.0079,1.1139,12.0079-6.095
				C90.7782,132.2788,84.0199,117.2257,82.5913,107.9507"/>
			<linearGradient id="SVGID_15_" gradientUnits="userSpaceOnUse" x1="67.858" y1="132.4592" x2="89.6911" y2="132.4592">
				<stop  offset="0" style="stop-color:#9B1038"/>
				<stop  offset="1" style="stop-color:#B21449"/>
			</linearGradient>
			<path class="st21" d="M72.6539,119.8347c-2.1828,7.2585-4.7959,14.939-4.7959,19.431c0,6.8837,6.0711,5.7482,10.9124,5.7482
				c4.8499,0,10.9208,1.1355,10.9208-5.7482c0-4.492-2.6173-12.1725-4.7978-19.431H72.6539z"/>
			<path class="st22" d="M84.9233,119.8347c0,0.2844-2.7556,0.5107-6.153,0.5107c-3.3912,0-6.149-0.2264-6.149-0.5107
				c0-0.278,2.7578-0.5085,6.149-0.5085C82.1677,119.3262,84.9233,119.5567,84.9233,119.8347"/>
			<linearGradient id="SVGID_16_" gradientUnits="userSpaceOnUse" x1="74.9555" y1="105.7877" x2="75.5456" y2="105.7877">
				<stop  offset="0" style="stop-color:#0A4166"/>
				<stop  offset="1" style="stop-color:#0D547C"/>
			</linearGradient>
			<polyline class="st23" points="75.5456,107.9507 75.5456,103.6247 74.9555,103.6247 74.9555,107.9507 			"/>
			<linearGradient id="SVGID_17_" gradientUnits="userSpaceOnUse" x1="75.5456" y1="105.7877" x2="76.1292" y2="105.7877">
				<stop  offset="0" style="stop-color:#0A4166"/>
				<stop  offset="1" style="stop-color:#0D547C"/>
			</linearGradient>
			<polyline class="st24" points="76.1292,107.9507 76.1292,103.6247 75.5456,103.6247 75.5456,107.9507 			"/>
			<linearGradient id="SVGID_18_" gradientUnits="userSpaceOnUse" x1="76.1292" y1="105.7877" x2="76.7214" y2="105.7877">
				<stop  offset="0" style="stop-color:#0A4166"/>
				<stop  offset="1" style="stop-color:#0D547C"/>
			</linearGradient>
			<polyline class="st25" points="76.7214,107.9507 76.7214,103.6247 76.1292,103.6247 76.1292,107.9507 			"/>
			<linearGradient id="SVGID_19_" gradientUnits="userSpaceOnUse" x1="76.7214" y1="105.7877" x2="77.305" y2="105.7877">
				<stop  offset="0" style="stop-color:#0A4166"/>
				<stop  offset="1" style="stop-color:#0D547C"/>
			</linearGradient>
			<polyline class="st26" points="77.305,107.9507 77.305,103.6247 76.7214,103.6247 76.7214,107.9507 			"/>
			<linearGradient id="SVGID_20_" gradientUnits="userSpaceOnUse" x1="77.305" y1="105.7877" x2="77.8928" y2="105.7877">
				<stop  offset="0" style="stop-color:#0A4166"/>
				<stop  offset="1" style="stop-color:#0D547C"/>
			</linearGradient>
			<polyline class="st27" points="77.8928,107.9507 77.8928,103.6247 77.305,103.6247 77.305,107.9507 			"/>
			<linearGradient id="SVGID_21_" gradientUnits="userSpaceOnUse" x1="77.8928" y1="105.7877" x2="78.4806" y2="105.7877">
				<stop  offset="0" style="stop-color:#0A4166"/>
				<stop  offset="1" style="stop-color:#0D547C"/>
			</linearGradient>
			<polyline class="st28" points="78.4806,107.9507 78.4806,103.6247 77.8928,103.6247 77.8928,107.9507 			"/>
			<linearGradient id="SVGID_22_" gradientUnits="userSpaceOnUse" x1="78.4806" y1="105.7877" x2="79.0642" y2="105.7877">
				<stop  offset="0" style="stop-color:#0A4166"/>
				<stop  offset="1" style="stop-color:#0D547C"/>
			</linearGradient>
			<polyline class="st29" points="79.0642,107.9507 79.0642,103.6247 78.4806,103.6247 78.4806,107.9507 			"/>
			<linearGradient id="SVGID_23_" gradientUnits="userSpaceOnUse" x1="79.0642" y1="105.7877" x2="79.6543" y2="105.7877">
				<stop  offset="0" style="stop-color:#0A4166"/>
				<stop  offset="1" style="stop-color:#0D547C"/>
			</linearGradient>
			<polyline class="st30" points="79.6543,107.9507 79.6543,103.6247 79.0642,103.6247 79.0642,107.9507 			"/>
			<linearGradient id="SVGID_24_" gradientUnits="userSpaceOnUse" x1="79.6543" y1="105.7877" x2="80.2377" y2="105.7877">
				<stop  offset="0" style="stop-color:#0A4166"/>
				<stop  offset="1" style="stop-color:#0D547C"/>
			</linearGradient>
			<polyline class="st31" points="80.2377,107.9507 80.2377,103.6247 79.6543,103.6247 79.6543,107.9507 			"/>
			<linearGradient id="SVGID_25_" gradientUnits="userSpaceOnUse" x1="80.2377" y1="105.7877" x2="80.8299" y2="105.7877">
				<stop  offset="0" style="stop-color:#0A4166"/>
				<stop  offset="1" style="stop-color:#0D547C"/>
			</linearGradient>
			<polyline class="st32" points="80.8299,107.9507 80.8299,103.6247 80.2377,103.6247 80.2377,107.9507 			"/>
			<linearGradient id="SVGID_26_" gradientUnits="userSpaceOnUse" x1="80.8299" y1="105.7877" x2="81.4135" y2="105.7877">
				<stop  offset="0" style="stop-color:#0A4166"/>
				<stop  offset="1" style="stop-color:#0D547C"/>
			</linearGradient>
			<polyline class="st33" points="81.4135,107.9507 81.4135,103.6247 80.8299,103.6247 80.8299,107.9507 			"/>
			<linearGradient id="SVGID_27_" gradientUnits="userSpaceOnUse" x1="81.4135" y1="105.7877" x2="81.9991" y2="105.7877">
				<stop  offset="0" style="stop-color:#0A4166"/>
				<stop  offset="1" style="stop-color:#0D547C"/>
			</linearGradient>
			<polyline class="st34" points="81.9991,107.9507 81.9991,103.6247 81.4135,103.6247 81.4135,107.9507 			"/>
			<linearGradient id="SVGID_28_" gradientUnits="userSpaceOnUse" x1="81.9991" y1="105.7877" x2="82.5872" y2="105.7877">
				<stop  offset="0" style="stop-color:#0A4166"/>
				<stop  offset="1" style="stop-color:#0D547C"/>
			</linearGradient>
			<polyline class="st35" points="82.5872,107.9507 82.5872,103.6247 81.9991,103.6247 81.9991,107.9507 			"/>
			<path class="st36" d="M76.1918,111.9538c0,0-0.469,2.0575-1.1801,5.1448c-0.6894,3.0895-1.6663,7.2003-2.5568,11.3174
				c-0.4559,2.0553-0.8405,4.1344-1.2449,6.0625c-0.216,0.9566-0.415,1.881-0.6073,2.7599
				c-0.1102,0.4417-0.1728,0.8575-0.2463,1.2626c-0.015,0.1032-0.0454,0.2111-0.0584,0.3016l-0.0195,0.25
				c-0.0215,0.1723-0.0473,0.308-0.0064,0.5213c0.0259,0.1917,0.0498,0.3856,0.0693,0.571
				c0.0367,0.1723,0.0648,0.3404,0.0949,0.5083c0.0217,0.1639,0.0821,0.3082,0.1233,0.4633
				c0.0476,0.1487,0.0843,0.2994,0.1556,0.4245c0.199,0.5623,0.59,0.8767,0.9165,1.1569c0.1901,0.0991,0.361,0.1917,0.5143,0.2628
				c0.1578,0.0732,0.3025,0.0993,0.4192,0.1423c0.2357,0.0797,0.361,0.1121,0.361,0.1121l-0.0151,0.1313
				c0,0-0.1361-0.0042-0.3869-0.0172c-0.1297-0.0108-0.2875-0.0086-0.4734-0.0494c-0.1879-0.0474-0.3955-0.1143-0.6332-0.1789
				c-0.4367-0.2133-1.0245-0.5665-1.3723-1.1999c-0.1169-0.1423-0.1817-0.3082-0.2572-0.4805
				c-0.0735-0.1681-0.1709-0.3404-0.2204-0.5299c-0.0584-0.1789-0.1233-0.3728-0.1859-0.5688
				c-0.0476-0.1853-0.0865-0.375-0.1297-0.571c-0.0239-0.1079-0.0476-0.1681-0.0671-0.3168
				c-0.0022-0.1185-0.0086-0.2369-0.0086-0.362c-0.0022-0.1227-0.0022-0.2497-0.0086-0.377c0.0086-0.114,0.0237-0.2175,0.0303-0.323
				c0.0474-0.4397,0.0885-0.9006,0.1642-1.3508c0.1297-0.9158,0.3176-1.8571,0.523-2.8331c0.2357-0.961,0.4625-1.9628,0.7392-2.9688
				c0.2702-1.0018,0.5447-2.0231,0.8191-3.0421c1.0957-4.0849,2.224-8.1524,3.123-11.1947
				c0.9034-3.0377,1.5023-5.0607,1.5023-5.0607L76.1918,111.9538z"/>
		</g>
		<g>
			<linearGradient id="SVGID_29_" gradientUnits="userSpaceOnUse" x1="103.7255" y1="102.4595" x2="108.0525" y2="102.4595">
				<stop  offset="0" style="stop-color:#0A4166"/>
				<stop  offset="1" style="stop-color:#0D547C"/>
			</linearGradient>
			<rect x="103.7255" y="99.7869" class="st37" width="4.3269" height="5.3451"/>
			<linearGradient id="SVGID_30_" gradientUnits="userSpaceOnUse" x1="97.9355" y1="101.9403" x2="108.0525" y2="101.9403">
				<stop  offset="0" style="stop-color:#0A4166"/>
				<stop  offset="1" style="stop-color:#0D547C"/>
			</linearGradient>
			<polyline class="st38" points="97.9355,100.2328 98.6747,100.9719 99.8612,99.7869 105.8869,99.7869 105.8869,105.132 
				108.0525,105.132 108.0525,99.7869 108.0525,98.7485 99.4117,98.7485 99.4117,98.7549 97.9355,100.2328 			"/>
			<path class="st2" d="M109.9609,108.3983h-3.821h-3.8148c-1.4286,9.2749-8.1847,24.3281-8.1847,31.5413
				c0,7.2088,6.6784,6.095,11.9995,6.095c5.3297,0,12.0079,1.1139,12.0079-6.095
				C118.1477,132.7263,111.3894,117.6732,109.9609,108.3983"/>
			<linearGradient id="SVGID_31_" gradientUnits="userSpaceOnUse" x1="95.2275" y1="132.9068" x2="117.0606" y2="132.9068">
				<stop  offset="0" style="stop-color:#9B1038"/>
				<stop  offset="1" style="stop-color:#B21449"/>
			</linearGradient>
			<path class="st39" d="M100.0234,120.2822c-2.1828,7.2585-4.7959,14.939-4.7959,19.431c0,6.8837,6.0711,5.7482,10.9124,5.7482
				c4.8499,0,10.9208,1.1355,10.9208-5.7482c0-4.492-2.6173-12.1725-4.7978-19.431H100.0234z"/>
			<path class="st22" d="M112.2928,120.2822c0,0.2844-2.7556,0.5107-6.153,0.5107c-3.3912,0-6.149-0.2264-6.149-0.5107
				c0-0.278,2.7578-0.5085,6.149-0.5085C109.5373,119.7737,112.2928,120.0042,112.2928,120.2822"/>
			<linearGradient id="SVGID_32_" gradientUnits="userSpaceOnUse" x1="102.3251" y1="106.2352" x2="102.9151" y2="106.2352">
				<stop  offset="0" style="stop-color:#0A4166"/>
				<stop  offset="1" style="stop-color:#0D547C"/>
			</linearGradient>
			<polyline class="st40" points="102.9151,108.3983 102.9151,104.0722 102.3251,104.0722 102.3251,108.3983 			"/>
			<linearGradient id="SVGID_33_" gradientUnits="userSpaceOnUse" x1="102.9151" y1="106.2352" x2="103.4987" y2="106.2352">
				<stop  offset="0" style="stop-color:#0A4166"/>
				<stop  offset="1" style="stop-color:#0D547C"/>
			</linearGradient>
			<polyline class="st41" points="103.4987,108.3983 103.4987,104.0722 102.9151,104.0722 102.9151,108.3983 			"/>
			<linearGradient id="SVGID_34_" gradientUnits="userSpaceOnUse" x1="103.4987" y1="106.2352" x2="104.0909" y2="106.2352">
				<stop  offset="0" style="stop-color:#0A4166"/>
				<stop  offset="1" style="stop-color:#0D547C"/>
			</linearGradient>
			<polyline class="st42" points="104.0909,108.3983 104.0909,104.0722 103.4987,104.0722 103.4987,108.3983 			"/>
			<linearGradient id="SVGID_35_" gradientUnits="userSpaceOnUse" x1="104.0909" y1="106.2352" x2="104.6745" y2="106.2352">
				<stop  offset="0" style="stop-color:#0A4166"/>
				<stop  offset="1" style="stop-color:#0D547C"/>
			</linearGradient>
			<polyline class="st43" points="104.6745,108.3983 104.6745,104.0722 104.0909,104.0722 104.0909,108.3983 			"/>
			<linearGradient id="SVGID_36_" gradientUnits="userSpaceOnUse" x1="104.6745" y1="106.2352" x2="105.2624" y2="106.2352">
				<stop  offset="0" style="stop-color:#0A4166"/>
				<stop  offset="1" style="stop-color:#0D547C"/>
			</linearGradient>
			<polyline class="st44" points="105.2624,108.3983 105.2624,104.0722 104.6745,104.0722 104.6745,108.3983 			"/>
			<linearGradient id="SVGID_37_" gradientUnits="userSpaceOnUse" x1="105.2624" y1="106.2352" x2="105.8502" y2="106.2352">
				<stop  offset="0" style="stop-color:#0A4166"/>
				<stop  offset="1" style="stop-color:#0D547C"/>
			</linearGradient>
			<polyline class="st45" points="105.8502,108.3983 105.8502,104.0722 105.2624,104.0722 105.2624,108.3983 			"/>
			<linearGradient id="SVGID_38_" gradientUnits="userSpaceOnUse" x1="105.8502" y1="106.2352" x2="106.4338" y2="106.2352">
				<stop  offset="0" style="stop-color:#0A4166"/>
				<stop  offset="1" style="stop-color:#0D547C"/>
			</linearGradient>
			<polyline class="st46" points="106.4338,108.3983 106.4338,104.0722 105.8502,104.0722 105.8502,108.3983 			"/>
			<linearGradient id="SVGID_39_" gradientUnits="userSpaceOnUse" x1="106.4338" y1="106.2352" x2="107.0238" y2="106.2352">
				<stop  offset="0" style="stop-color:#0A4166"/>
				<stop  offset="1" style="stop-color:#0D547C"/>
			</linearGradient>
			<polyline class="st47" points="107.0238,108.3983 107.0238,104.0722 106.4338,104.0722 106.4338,108.3983 			"/>
			<linearGradient id="SVGID_40_" gradientUnits="userSpaceOnUse" x1="107.0238" y1="106.2352" x2="107.6072" y2="106.2352">
				<stop  offset="0" style="stop-color:#0A4166"/>
				<stop  offset="1" style="stop-color:#0D547C"/>
			</linearGradient>
			<polyline class="st48" points="107.6072,108.3983 107.6072,104.0722 107.0238,104.0722 107.0238,108.3983 			"/>
			<linearGradient id="SVGID_41_" gradientUnits="userSpaceOnUse" x1="107.6072" y1="106.2352" x2="108.1995" y2="106.2352">
				<stop  offset="0" style="stop-color:#0A4166"/>
				<stop  offset="1" style="stop-color:#0D547C"/>
			</linearGradient>
			<polyline class="st49" points="108.1995,108.3983 108.1995,104.0722 107.6072,104.0722 107.6072,108.3983 			"/>
			<linearGradient id="SVGID_42_" gradientUnits="userSpaceOnUse" x1="108.1995" y1="106.2352" x2="108.783" y2="106.2352">
				<stop  offset="0" style="stop-color:#0A4166"/>
				<stop  offset="1" style="stop-color:#0D547C"/>
			</linearGradient>
			<polyline class="st50" points="108.783,108.3983 108.783,104.0722 108.1995,104.0722 108.1995,108.3983 			"/>
			<linearGradient id="SVGID_43_" gradientUnits="userSpaceOnUse" x1="108.783" y1="106.2352" x2="109.3686" y2="106.2352">
				<stop  offset="0" style="stop-color:#0A4166"/>
				<stop  offset="1" style="stop-color:#0D547C"/>
			</linearGradient>
			<polyline class="st51" points="109.3686,108.3983 109.3686,104.0722 108.783,104.0722 108.783,108.3983 			"/>
			<linearGradient id="SVGID_44_" gradientUnits="userSpaceOnUse" x1="109.3686" y1="106.2352" x2="109.9567" y2="106.2352">
				<stop  offset="0" style="stop-color:#0A4166"/>
				<stop  offset="1" style="stop-color:#0D547C"/>
			</linearGradient>
			<polyline class="st52" points="109.9567,108.3983 109.9567,104.0722 109.3686,104.0722 109.3686,108.3983 			"/>
			<path class="st36" d="M103.5613,112.4013c0,0-0.469,2.0575-1.18,5.1448c-0.6894,3.0895-1.6663,7.2003-2.5568,11.3174
				c-0.4559,2.0553-0.8405,4.1344-1.2449,6.0625c-0.216,0.9566-0.415,1.881-0.6073,2.7599
				c-0.1102,0.4417-0.1728,0.8575-0.2463,1.2626c-0.015,0.1032-0.0454,0.2111-0.0584,0.3016l-0.0195,0.25
				c-0.0215,0.1723-0.0473,0.308-0.0064,0.5213c0.0259,0.1917,0.0498,0.3856,0.0693,0.571
				c0.0367,0.1723,0.0648,0.3404,0.0949,0.5083c0.0217,0.1639,0.0821,0.3082,0.1233,0.4633
				c0.0476,0.1487,0.0843,0.2994,0.1556,0.4245c0.199,0.5623,0.59,0.8767,0.9165,1.1569c0.1901,0.0991,0.361,0.1917,0.5143,0.2628
				c0.1578,0.0732,0.3025,0.0993,0.4192,0.1423c0.2357,0.0797,0.361,0.1121,0.361,0.1121l-0.015,0.1313
				c0,0-0.1361-0.0042-0.3869-0.0172c-0.1297-0.0108-0.2875-0.0086-0.4734-0.0494c-0.1879-0.0474-0.3955-0.1143-0.6332-0.1789
				c-0.4367-0.2133-1.0245-0.5665-1.3723-1.1999c-0.1169-0.1423-0.1817-0.3082-0.2572-0.4805
				c-0.0735-0.1681-0.1709-0.3404-0.2204-0.5299c-0.0584-0.1789-0.1233-0.3728-0.1859-0.5688
				c-0.0476-0.1853-0.0865-0.375-0.1297-0.571c-0.0239-0.1079-0.0476-0.1681-0.0671-0.3168
				c-0.0022-0.1185-0.0086-0.2369-0.0086-0.362c-0.0022-0.1227-0.0022-0.2497-0.0086-0.377c0.0086-0.114,0.0237-0.2175,0.0303-0.323
				c0.0474-0.4397,0.0885-0.9006,0.1642-1.3508c0.1297-0.9158,0.3176-1.8571,0.523-2.8332c0.2357-0.961,0.4625-1.9628,0.7392-2.9688
				c0.2702-1.0018,0.5447-2.0231,0.8191-3.0421c1.0957-4.0849,2.224-8.1524,3.123-11.1947
				c0.9034-3.0377,1.5023-5.0607,1.5023-5.0607L103.5613,112.4013z"/>
		</g>
		<linearGradient id="SVGID_45_" gradientUnits="userSpaceOnUse" x1="48.9865" y1="102.0475" x2="53.3134" y2="102.0475">
			<stop  offset="0" style="stop-color:#0A4166"/>
			<stop  offset="1" style="stop-color:#0D547C"/>
		</linearGradient>
		<rect x="48.9865" y="99.3749" class="st53" width="4.3269" height="5.3451"/>
		<linearGradient id="SVGID_46_" gradientUnits="userSpaceOnUse" x1="43.1965" y1="101.5283" x2="53.3134" y2="101.5283">
			<stop  offset="0" style="stop-color:#0A4166"/>
			<stop  offset="1" style="stop-color:#0D547C"/>
		</linearGradient>
		<polyline class="st54" points="43.1965,99.8208 43.9357,100.5599 45.1221,99.3749 51.1479,99.3749 51.1479,104.72 53.3134,104.72 
			53.3134,99.3749 53.3134,98.3365 44.6726,98.3365 44.6726,98.3429 43.1965,99.8208 		"/>
		<path class="st2" d="M55.2218,107.9863h-3.821H47.586c-1.4286,9.2749-8.1847,24.328-8.1847,31.5413
			c0,7.2088,6.6784,6.095,11.9995,6.095c5.3297,0,12.0079,1.1139,12.0079-6.095C63.4087,132.3143,56.6504,117.2612,55.2218,107.9863
			"/>
		<linearGradient id="SVGID_47_" gradientUnits="userSpaceOnUse" x1="40.4885" y1="132.4948" x2="62.3216" y2="132.4948">
			<stop  offset="0" style="stop-color:#9B1038"/>
			<stop  offset="1" style="stop-color:#B21449"/>
		</linearGradient>
		<path class="st55" d="M45.2844,119.8702c-2.1828,7.2585-4.7959,14.939-4.7959,19.431c0,6.8837,6.0711,5.7482,10.9124,5.7482
			c4.8499,0,10.9208,1.1355,10.9208-5.7482c0-4.492-2.6173-12.1725-4.7978-19.431H45.2844z"/>
		<path class="st22" d="M57.5538,119.8702c0,0.2844-2.7556,0.5107-6.153,0.5107c-3.3912,0-6.149-0.2263-6.149-0.5107
			c0-0.278,2.7578-0.5085,6.149-0.5085C54.7982,119.3617,57.5538,119.5922,57.5538,119.8702"/>
		<linearGradient id="SVGID_48_" gradientUnits="userSpaceOnUse" x1="47.586" y1="105.8232" x2="48.176" y2="105.8232">
			<stop  offset="0" style="stop-color:#0A4166"/>
			<stop  offset="1" style="stop-color:#0D547C"/>
		</linearGradient>
		<polyline class="st56" points="48.176,107.9863 48.176,103.6602 47.586,103.6602 47.586,107.9863 		"/>
		<linearGradient id="SVGID_49_" gradientUnits="userSpaceOnUse" x1="48.176" y1="105.8232" x2="48.7597" y2="105.8232">
			<stop  offset="0" style="stop-color:#0A4166"/>
			<stop  offset="1" style="stop-color:#0D547C"/>
		</linearGradient>
		<polyline class="st57" points="48.7597,107.9863 48.7597,103.6602 48.176,103.6602 48.176,107.9863 		"/>
		<linearGradient id="SVGID_50_" gradientUnits="userSpaceOnUse" x1="48.7597" y1="105.8232" x2="49.3519" y2="105.8232">
			<stop  offset="0" style="stop-color:#0A4166"/>
			<stop  offset="1" style="stop-color:#0D547C"/>
		</linearGradient>
		<polyline class="st58" points="49.3519,107.9863 49.3519,103.6602 48.7597,103.6602 48.7597,107.9863 		"/>
		<linearGradient id="SVGID_51_" gradientUnits="userSpaceOnUse" x1="49.3519" y1="105.8232" x2="49.9355" y2="105.8232">
			<stop  offset="0" style="stop-color:#0A4166"/>
			<stop  offset="1" style="stop-color:#0D547C"/>
		</linearGradient>
		<polyline class="st59" points="49.9355,107.9863 49.9355,103.6602 49.3519,103.6602 49.3519,107.9863 		"/>
		<linearGradient id="SVGID_52_" gradientUnits="userSpaceOnUse" x1="49.9355" y1="105.8232" x2="50.5233" y2="105.8232">
			<stop  offset="0" style="stop-color:#0A4166"/>
			<stop  offset="1" style="stop-color:#0D547C"/>
		</linearGradient>
		<polyline class="st60" points="50.5233,107.9863 50.5233,103.6602 49.9355,103.6602 49.9355,107.9863 		"/>
		<linearGradient id="SVGID_53_" gradientUnits="userSpaceOnUse" x1="50.5233" y1="105.8232" x2="51.1111" y2="105.8232">
			<stop  offset="0" style="stop-color:#0A4166"/>
			<stop  offset="1" style="stop-color:#0D547C"/>
		</linearGradient>
		<polyline class="st61" points="51.1111,107.9863 51.1111,103.6602 50.5233,103.6602 50.5233,107.9863 		"/>
		<linearGradient id="SVGID_54_" gradientUnits="userSpaceOnUse" x1="51.1111" y1="105.8232" x2="51.6947" y2="105.8232">
			<stop  offset="0" style="stop-color:#0A4166"/>
			<stop  offset="1" style="stop-color:#0D547C"/>
		</linearGradient>
		<polyline class="st62" points="51.6947,107.9863 51.6947,103.6602 51.1111,103.6602 51.1111,107.9863 		"/>
		<linearGradient id="SVGID_55_" gradientUnits="userSpaceOnUse" x1="51.6947" y1="105.8232" x2="52.2848" y2="105.8232">
			<stop  offset="0" style="stop-color:#0A4166"/>
			<stop  offset="1" style="stop-color:#0D547C"/>
		</linearGradient>
		<polyline class="st63" points="52.2848,107.9863 52.2848,103.6602 51.6947,103.6602 51.6947,107.9863 		"/>
		<linearGradient id="SVGID_56_" gradientUnits="userSpaceOnUse" x1="52.2848" y1="105.8232" x2="52.8681" y2="105.8232">
			<stop  offset="0" style="stop-color:#0A4166"/>
			<stop  offset="1" style="stop-color:#0D547C"/>
		</linearGradient>
		<polyline class="st64" points="52.8681,107.9863 52.8681,103.6602 52.2848,103.6602 52.2848,107.9863 		"/>
		<linearGradient id="SVGID_57_" gradientUnits="userSpaceOnUse" x1="52.8681" y1="105.8232" x2="53.4604" y2="105.8232">
			<stop  offset="0" style="stop-color:#0A4166"/>
			<stop  offset="1" style="stop-color:#0D547C"/>
		</linearGradient>
		<polyline class="st65" points="53.4604,107.9863 53.4604,103.6602 52.8681,103.6602 52.8681,107.9863 		"/>
		<linearGradient id="SVGID_58_" gradientUnits="userSpaceOnUse" x1="53.4604" y1="105.8232" x2="54.044" y2="105.8232">
			<stop  offset="0" style="stop-color:#0A4166"/>
			<stop  offset="1" style="stop-color:#0D547C"/>
		</linearGradient>
		<polyline class="st66" points="54.044,107.9863 54.044,103.6602 53.4604,103.6602 53.4604,107.9863 		"/>
		<linearGradient id="SVGID_59_" gradientUnits="userSpaceOnUse" x1="54.044" y1="105.8232" x2="54.6296" y2="105.8232">
			<stop  offset="0" style="stop-color:#0A4166"/>
			<stop  offset="1" style="stop-color:#0D547C"/>
		</linearGradient>
		<polyline class="st67" points="54.6296,107.9863 54.6296,103.6602 54.044,103.6602 54.044,107.9863 		"/>
		<linearGradient id="SVGID_60_" gradientUnits="userSpaceOnUse" x1="54.6296" y1="105.8232" x2="55.2177" y2="105.8232">
			<stop  offset="0" style="stop-color:#0A4166"/>
			<stop  offset="1" style="stop-color:#0D547C"/>
		</linearGradient>
		<polyline class="st68" points="55.2177,107.9863 55.2177,103.6602 54.6296,103.6602 54.6296,107.9863 		"/>
		<path class="st36" d="M48.8223,111.9893c0,0-0.469,2.0575-1.18,5.1448c-0.6894,3.0895-1.6663,7.2003-2.5568,11.3174
			c-0.4559,2.0553-0.8405,4.1344-1.2449,6.0625c-0.216,0.9566-0.415,1.881-0.6073,2.7599
			c-0.1102,0.4417-0.1728,0.8575-0.2463,1.2626c-0.015,0.1032-0.0454,0.2111-0.0584,0.3016l-0.0195,0.25
			c-0.0215,0.1723-0.0473,0.308-0.0064,0.5213c0.0259,0.1917,0.0498,0.3856,0.0693,0.571c0.0367,0.1723,0.0648,0.3404,0.0949,0.5083
			c0.0217,0.1639,0.0821,0.3082,0.1233,0.4633c0.0476,0.1487,0.0843,0.2994,0.1556,0.4245c0.199,0.5623,0.59,0.8767,0.9165,1.1569
			c0.1901,0.099,0.361,0.1917,0.5143,0.2627c0.1578,0.0733,0.3025,0.0993,0.4192,0.1423c0.2357,0.0796,0.361,0.1121,0.361,0.1121
			l-0.015,0.1313c0,0-0.1361-0.0042-0.3869-0.0172c-0.1297-0.0108-0.2875-0.0086-0.4734-0.0494
			c-0.1879-0.0474-0.3955-0.1143-0.6332-0.1789c-0.4367-0.2133-1.0245-0.5665-1.3723-1.1999
			c-0.1169-0.1423-0.1817-0.3082-0.2572-0.4805c-0.0735-0.1681-0.1709-0.3404-0.2204-0.5299
			c-0.0584-0.1789-0.1233-0.3728-0.1859-0.5687c-0.0476-0.1853-0.0865-0.375-0.1297-0.571
			c-0.0239-0.1079-0.0476-0.1681-0.0671-0.3168c-0.0022-0.1185-0.0086-0.2369-0.0086-0.362
			c-0.0022-0.1227-0.0022-0.2497-0.0086-0.3771c0.0086-0.114,0.0237-0.2175,0.0303-0.323c0.0474-0.4397,0.0885-0.9006,0.1642-1.3508
			c0.1297-0.9158,0.3176-1.8571,0.523-2.8332c0.2357-0.961,0.4625-1.9628,0.7392-2.9688c0.2702-1.0018,0.5447-2.023,0.8191-3.0421
			c1.0957-4.0849,2.224-8.1525,3.123-11.1947c0.9034-3.0377,1.5023-5.0607,1.5023-5.0607L48.8223,111.9893z"/>
		<path class="st2" d="M58.7945,137.3645H44.0136l0.8277-8.4132h13.1255C57.9668,128.9512,58.5178,134.5593,58.7945,137.3645"/>
		<linearGradient id="SVGID_61_" gradientUnits="userSpaceOnUse" x1="41.6926" y1="43.0206" x2="52.9322" y2="43.0206">
			<stop  offset="0" style="stop-color:#9B1038"/>
			<stop  offset="1" style="stop-color:#B21449"/>
		</linearGradient>
		<rect x="41.6926" y="40.8014" class="st69" width="11.2396" height="4.4384"/>
		<linearGradient id="SVGID_62_" gradientUnits="userSpaceOnUse" x1="71.3963" y1="43.2109" x2="82.6318" y2="43.2109">
			<stop  offset="0" style="stop-color:#9B1038"/>
			<stop  offset="1" style="stop-color:#B21449"/>
		</linearGradient>
		<rect x="71.3963" y="40.994" class="st70" width="11.2355" height="4.434"/>
		<linearGradient id="SVGID_63_" gradientUnits="userSpaceOnUse" x1="101.174" y1="43.0228" x2="112.3813" y2="43.0228">
			<stop  offset="0" style="stop-color:#9B1038"/>
			<stop  offset="1" style="stop-color:#B21449"/>
		</linearGradient>
		<rect x="101.174" y="40.8058" class="st71" width="11.2073" height="4.434"/>
		<linearGradient id="SVGID_64_" gradientUnits="userSpaceOnUse" x1="48.1682" y1="133.0792" x2="54.4811" y2="133.0792">
			<stop  offset="0" style="stop-color:#0A4166"/>
			<stop  offset="1" style="stop-color:#0D547C"/>
		</linearGradient>
		<ellipse class="st72" cx="51.3246" cy="133.0792" rx="3.1565" ry="3.1465"/>
		<path class="st2" d="M86.3897,137.3645H71.6088l0.8277-8.4132H85.562C85.562,128.9512,86.1131,134.5593,86.3897,137.3645"/>
		<linearGradient id="SVGID_65_" gradientUnits="userSpaceOnUse" x1="75.7634" y1="133.0792" x2="82.0763" y2="133.0792">
			<stop  offset="0" style="stop-color:#0A4166"/>
			<stop  offset="1" style="stop-color:#0D547C"/>
		</linearGradient>
		<ellipse class="st73" cx="78.9199" cy="133.0792" rx="3.1565" ry="3.1465"/>
		<path class="st2" d="M113.9849,137.3645H99.204l0.8277-8.4132h13.1255C113.1572,128.9512,113.7083,134.5593,113.9849,137.3645"/>
		<linearGradient id="SVGID_66_" gradientUnits="userSpaceOnUse" x1="103.3586" y1="133.0792" x2="109.6715" y2="133.0792">
			<stop  offset="0" style="stop-color:#0A4166"/>
			<stop  offset="1" style="stop-color:#0D547C"/>
		</linearGradient>
		<ellipse class="st74" cx="106.5151" cy="133.0792" rx="3.1565" ry="3.1465"/>
	</g>
</g>
</svg>
