<?xml version="1.0" encoding="utf-8"?>
<!-- Generator: Adobe Illustrator 19.1.0, SVG Export Plug-In . SVG Version: 6.00 Build 0)  -->
<svg version="1.1" id="Слой_1" xmlns="http://www.w3.org/2000/svg" xmlns:xlink="http://www.w3.org/1999/xlink" x="0px" y="0px"
	 viewBox="0 0 166 180" style="enable-background:new 0 0 166 180;" xml:space="preserve">
<style type="text/css">
	.st0{fill:#D1DCE0;}
	.st1{fill-rule:evenodd;clip-rule:evenodd;fill:url(#SVGID_1_);}
	.st2{fill-rule:evenodd;clip-rule:evenodd;fill:#B1B1B1;}
	.st3{fill-rule:evenodd;clip-rule:evenodd;fill:url(#SVGID_2_);}
	.st4{fill-rule:evenodd;clip-rule:evenodd;fill:#99BCC1;}
	.st5{opacity:0.47;fill-rule:evenodd;clip-rule:evenodd;fill:#F2F2F2;}
	.st6{fill-rule:evenodd;clip-rule:evenodd;fill:#E6E6E7;}
	.st7{fill-rule:evenodd;clip-rule:evenodd;fill:#FFFFFF;}
	.st8{fill-rule:evenodd;clip-rule:evenodd;fill:#CBCAC9;}
	.st9{opacity:0.31;fill-rule:evenodd;clip-rule:evenodd;fill:#FFFFFF;}
	.st10{fill-rule:evenodd;clip-rule:evenodd;fill:#E7C9A8;}
	.st11{fill-rule:evenodd;clip-rule:evenodd;fill:url(#SVGID_3_);}
	.st12{fill-rule:evenodd;clip-rule:evenodd;fill:url(#SVGID_4_);}
	.st13{opacity:0.5;fill-rule:evenodd;clip-rule:evenodd;fill:#F2F2F2;}
</style>
<polygon class="st0" points="0,0 54.0505,90.683 0,180 111.9494,180 166,90.683 111.9494,0 "/>
<g>
	
		<linearGradient id="SVGID_1_" gradientUnits="userSpaceOnUse" x1="239.4336" y1="6820.8062" x2="341.6498" y2="6820.8062" gradientTransform="matrix(-1 0 0 -1 370.156 6908.2256)">
		<stop  offset="0" style="stop-color:#0A4166"/>
		<stop  offset="1" style="stop-color:#0D547C"/>
	</linearGradient>
	<path class="st1" d="M30.7844,53.512h97.6599c1.2533,0,2.2782,1.0243,2.2782,2.2754v63.2642c0,1.2511-1.0249,2.2754-2.2782,2.2754
		H30.7844c-1.252,0-2.2782-1.0237-2.2782-2.2754V55.7874C28.5062,54.5363,29.5312,53.512,30.7844,53.512"/>
	<path class="st2" d="M35.2193,53.512h5.6622v3.2304c0,0.2924-0.2393,0.5303-0.5327,0.5303h-4.5981
		c-0.2921,0-0.5314-0.2379-0.5314-0.5303V53.512z"/>
	<path class="st2" d="M118.3484,53.512h5.6623v3.2304c0,0.2924-0.2407,0.5303-0.5328,0.5303h-4.5981
		c-0.2921,0-0.5314-0.2379-0.5314-0.5303V53.512z"/>
	
		<linearGradient id="SVGID_2_" gradientUnits="userSpaceOnUse" x1="229.4711" y1="6865.0503" x2="351.5185" y2="6865.0503" gradientTransform="matrix(-1 0 0 -1 370.156 6908.2256)">
		<stop  offset="0" style="stop-color:#0A4166"/>
		<stop  offset="1" style="stop-color:#0D547C"/>
	</linearGradient>
	<path class="st3" d="M21.3463,33.998h116.342c2.7987,0,3.648,1.3032,2.5015,3.1024l-9.735,15.253H28.5062l-8.6721-13.6893
		C17.8874,35.5912,18.2642,33.998,21.3463,33.998"/>
	<polygon class="st4" points="134.2331,38.6469 127.1554,50.2999 31.8891,50.2999 24.7367,38.6469 	"/>
	<path class="st5" d="M20.7044,34.4228h117.913c0.2505,0,0.4566,0.2048,0.4566,0.4561l0,0c0,0.2494-0.2061,0.4542-0.4566,0.4542
		H20.7044c-0.2504,0-0.4566-0.2048-0.4566-0.4542l0,0C20.2478,34.6276,20.4541,34.4228,20.7044,34.4228"/>
	<path class="st6" d="M36.0232,50.5812h4.0531c0.2591,0,0.4701,0.2103,0.4701,0.4683v4.7856c0,0.2569-0.211,0.4684-0.4701,0.4684
		h-4.0531c-0.2578,0-0.4701-0.2115-0.4701-0.4684v-4.7856C35.5532,50.7915,35.7654,50.5812,36.0232,50.5812"/>
	<path class="st6" d="M119.1523,50.5812h4.0531c0.259,0,0.4689,0.2103,0.4689,0.4683v4.7856c0,0.2569-0.2099,0.4684-0.4689,0.4684
		h-4.0531c-0.2578,0-0.4688-0.2115-0.4688-0.4684v-4.7856C118.6835,50.7915,118.8945,50.5812,119.1523,50.5812"/>
	<path class="st7" d="M120.7763,62.5499h3.1546c0.3572,0,0.6517,0.293,0.6517,0.6503v2.3423c0,0.3573-0.2945,0.6503-0.6517,0.6503
		h-3.1546c-0.3583,0-0.6517-0.293-0.6517-0.6503v-2.3423C120.1245,62.8429,120.4179,62.5499,120.7763,62.5499"/>
	<path class="st7" d="M120.9211,67.0168h2.8649c0.437,0,0.7966,0.3574,0.7966,0.795v3.171c0,0.437-0.3596,0.7957-0.7966,0.7957
		h-2.8649c-0.4382,0-0.7965-0.3587-0.7965-0.7957v-3.171C120.1245,67.3742,120.4829,67.0168,120.9211,67.0168"/>
	<path class="st7" d="M120.9211,72.6017h2.8649c0.437,0,0.7966,0.3574,0.7966,0.7957v3.1698c0,0.4382-0.3596,0.7957-0.7966,0.7957
		h-2.8649c-0.4382,0-0.7965-0.3574-0.7965-0.7957v-3.1698C120.1245,72.9591,120.4829,72.6017,120.9211,72.6017"/>
	<path class="st7" d="M120.9211,78.1861h2.8649c0.437,0,0.7966,0.3585,0.7966,0.7955v3.171c0,0.4383-0.3596,0.7957-0.7966,0.7957
		h-2.8649c-0.4382,0-0.7965-0.3574-0.7965-0.7957v-3.171C120.1245,78.5446,120.4829,78.1861,120.9211,78.1861"/>
	<path class="st7" d="M120.9211,83.7716h2.8649c0.437,0,0.7966,0.3573,0.7966,0.7957v3.1709c0,0.4365-0.3596,0.795-0.7966,0.795
		h-2.8649c-0.4382,0-0.7965-0.3585-0.7965-0.795v-3.1709C120.1245,84.1289,120.4829,83.7716,120.9211,83.7716"/>
	<path class="st7" d="M120.9211,89.3572h2.8649c0.437,0,0.7966,0.3574,0.7966,0.795v3.1704c0,0.4376-0.3596,0.7951-0.7966,0.7951
		h-2.8649c-0.4382,0-0.7965-0.3574-0.7965-0.7951v-3.1704C120.1245,89.7146,120.4829,89.3572,120.9211,89.3572"/>
	<path class="st7" d="M115.2048,62.5499h3.1534c0.3596,0,0.6517,0.293,0.6517,0.6503v2.3423c0,0.3573-0.2921,0.6503-0.6517,0.6503
		h-3.1534c-0.3585,0-0.6518-0.293-0.6518-0.6503v-2.3423C114.553,62.8429,114.8463,62.5499,115.2048,62.5499"/>
	<path class="st7" d="M110.2593,67.0168h7.8988c0.469,0,0.8518,0.3831,0.8518,0.8502v3.06c0,0.4684-0.3828,0.8515-0.8518,0.8515
		h-7.8988c-0.4688,0-0.8531-0.3832-0.8531-0.8515v-3.06C109.4062,67.3999,109.7905,67.0168,110.2593,67.0168"/>
	<path class="st7" d="M113.8853,72.6017h4.2728c0.469,0,0.8518,0.3819,0.8518,0.8503v3.0607c0,0.467-0.3828,0.8502-0.8518,0.8502
		h-4.2728c-0.469,0-0.8518-0.3831-0.8518-0.8502V73.452C113.0335,72.9836,113.4163,72.6017,113.8853,72.6017"/>
	<path class="st7" d="M109.6296,78.1861h8.5285c0.4677,0,0.8518,0.383,0.8518,0.8514v3.0601c0,0.4676-0.3841,0.8508-0.8518,0.8508
		h-8.5285c-0.4676,0-0.8506-0.3832-0.8506-0.8508v-3.0601C108.779,78.5691,109.162,78.1861,109.6296,78.1861"/>
	<path class="st7" d="M115.3496,83.7716h2.8637c0.4383,0,0.7966,0.3573,0.7966,0.7957v3.1709c0,0.4365-0.3583,0.795-0.7966,0.795
		h-2.8637c-0.4382,0-0.7966-0.3585-0.7966-0.795v-3.1709C114.553,84.1289,114.9114,83.7716,115.3496,83.7716"/>
	<path class="st7" d="M115.3496,89.3572h2.8637c0.4383,0,0.7966,0.3574,0.7966,0.795v3.1704c0,0.4376-0.3583,0.7951-0.7966,0.7951
		h-2.8637c-0.4382,0-0.7966-0.3574-0.7966-0.7951v-3.1704C114.553,89.7146,114.9114,89.3572,115.3496,89.3572"/>
	<path class="st7" d="M110.058,62.5499h2.7298c0.3572,0,0.6506,0.293,0.6506,0.6503v2.3423c0,0.3573-0.2934,0.6503-0.6506,0.6503
		h-2.7298c-0.3585,0-0.6518-0.293-0.6518-0.6503v-2.3423C109.4062,62.8429,109.6996,62.5499,110.058,62.5499"/>
	<path class="st7" d="M104.8277,62.5499h2.7287c0.3597,0,0.6518,0.293,0.6518,0.6503v2.3423c0,0.3573-0.2921,0.6503-0.6518,0.6503
		h-2.7287c-0.3584,0-0.6505-0.293-0.6505-0.6503v-2.3423C104.1773,62.8429,104.4694,62.5499,104.8277,62.5499"/>
	<path class="st7" d="M99.5975,62.5499h2.7287c0.3585,0,0.6518,0.293,0.6518,0.6503v2.3423c0,0.3573-0.2934,0.6503-0.6518,0.6503
		h-2.7287c-0.3585,0-0.6518-0.293-0.6518-0.6503v-2.3423C98.9457,62.8429,99.2391,62.5499,99.5975,62.5499"/>
	<path class="st7" d="M94.3673,62.5499h2.7287c0.3596,0,0.6517,0.293,0.6517,0.6503v2.3423c0,0.3573-0.2921,0.6503-0.6517,0.6503
		h-2.7287c-0.3585,0-0.6506-0.293-0.6506-0.6503v-2.3423C93.7167,62.8429,94.0089,62.5499,94.3673,62.5499"/>
	<path class="st7" d="M89.137,62.5499h2.7287c0.3585,0,0.6518,0.293,0.6518,0.6503v2.3423c0,0.3573-0.2934,0.6503-0.6518,0.6503
		H89.137c-0.3583,0-0.6517-0.293-0.6517-0.6503v-2.3423C88.4853,62.8429,88.7786,62.5499,89.137,62.5499"/>
	<path class="st7" d="M83.9068,62.5499h2.7287c0.3572,0,0.6518,0.293,0.6518,0.6503v2.3423c0,0.3573-0.2946,0.6503-0.6518,0.6503
		h-2.7287c-0.3585,0-0.6506-0.293-0.6506-0.6503v-2.3423C83.2562,62.8429,83.5483,62.5499,83.9068,62.5499"/>
	<path class="st7" d="M78.6766,62.5499h2.7287c0.3583,0,0.6517,0.293,0.6517,0.6503v2.3423c0,0.3573-0.2934,0.6503-0.6517,0.6503
		h-2.7287c-0.3585,0-0.6518-0.293-0.6518-0.6503v-2.3423C78.0247,62.8429,78.3181,62.5499,78.6766,62.5499"/>
	<path class="st7" d="M73.4451,62.5499h2.7298c0.3572,0,0.6518,0.293,0.6518,0.6503v2.3423c0,0.3573-0.2946,0.6503-0.6518,0.6503
		h-2.7298c-0.3572,0-0.6506-0.293-0.6506-0.6503v-2.3423C72.7945,62.8429,73.0879,62.5499,73.4451,62.5499"/>
	<path class="st7" d="M68.2161,62.5499h2.7274c0.3585,0,0.6518,0.293,0.6518,0.6503v2.3423c0,0.3573-0.2934,0.6503-0.6518,0.6503
		h-2.7274c-0.3596,0-0.6517-0.293-0.6517-0.6503v-2.3423C67.5643,62.8429,67.8565,62.5499,68.2161,62.5499"/>
	<path class="st7" d="M62.9846,62.5499h2.7299c0.3572,0,0.6517,0.293,0.6517,0.6503v2.3423c0,0.3573-0.2945,0.6503-0.6517,0.6503
		h-2.7299c-0.3572,0-0.6506-0.293-0.6506-0.6503v-2.3423C62.334,62.8429,62.6274,62.5499,62.9846,62.5499"/>
	<path class="st7" d="M57.7555,62.5499h2.7275c0.3584,0,0.6517,0.293,0.6517,0.6503v2.3423c0,0.3573-0.2934,0.6503-0.6517,0.6503
		h-2.7275c-0.3596,0-0.6517-0.293-0.6517-0.6503v-2.3423C57.1038,62.8429,57.3959,62.5499,57.7555,62.5499"/>
	<path class="st7" d="M52.5241,62.5499h2.7287c0.3585,0,0.6531,0.293,0.6531,0.6503v2.3423c0,0.3573-0.2946,0.6503-0.6531,0.6503
		h-2.7287c-0.3584,0-0.6505-0.293-0.6505-0.6503v-2.3423C51.8736,62.8429,52.1657,62.5499,52.5241,62.5499"/>
	<path class="st7" d="M47.2951,62.5499h2.7274c0.3585,0,0.6518,0.293,0.6518,0.6503v2.3423c0,0.3573-0.2934,0.6503-0.6518,0.6503
		h-2.7274c-0.3597,0-0.6531-0.293-0.6531-0.6503v-2.3423C46.642,62.8429,46.9354,62.5499,47.2951,62.5499"/>
	<path class="st7" d="M42.0637,62.5499h2.7287c0.3584,0,0.6505,0.293,0.6505,0.6503v2.3423c0,0.3573-0.2921,0.6503-0.6505,0.6503
		h-2.7287c-0.3585,0-0.6518-0.293-0.6518-0.6503v-2.3423C41.4118,62.8429,41.7052,62.5499,42.0637,62.5499"/>
	<path class="st7" d="M36.1889,62.5499h3.1534c0.3585,0,0.6518,0.293,0.6518,0.6503v2.3423c0,0.3573-0.2934,0.6503-0.6518,0.6503
		h-3.1534c-0.3596,0-0.6517-0.293-0.6517-0.6503v-2.3423C35.5372,62.8429,35.8293,62.5499,36.1889,62.5499"/>
	<path class="st7" d="M104.6154,67.0168h2.8109c0.4309,0,0.7819,0.3513,0.7819,0.7797v3.2004c0,0.4297-0.3511,0.7816-0.7819,0.7816
		h-2.8109c-0.4309,0-0.7807-0.3519-0.7807-0.7816v-3.2004C103.8348,67.368,104.1846,67.0168,104.6154,67.0168"/>
	<path class="st7" d="M98.9397,67.0168h2.8121c0.4296,0,0.7818,0.3513,0.7818,0.7797v3.2004c0,0.4297-0.3522,0.7816-0.7818,0.7816
		h-2.8121c-0.4285,0-0.7807-0.3519-0.7807-0.7816v-3.2004C98.159,67.368,98.5112,67.0168,98.9397,67.0168"/>
	<path class="st7" d="M93.2663,67.0168h2.8109c0.4309,0,0.7819,0.3513,0.7819,0.7797v3.2004c0,0.4297-0.351,0.7816-0.7819,0.7816
		h-2.8109c-0.4309,0-0.7819-0.3519-0.7819-0.7816v-3.2004C92.4843,67.368,92.8354,67.0168,93.2663,67.0168"/>
	<path class="st7" d="M87.5905,67.0168h2.8121c0.4296,0,0.7818,0.3513,0.7818,0.7797v3.2004c0,0.4297-0.3522,0.7816-0.7818,0.7816
		h-2.8121c-0.4285,0-0.7807-0.3519-0.7807-0.7816v-3.2004C86.8098,67.368,87.162,67.0168,87.5905,67.0168"/>
	<path class="st7" d="M81.9171,67.0168h2.8109c0.4309,0,0.7819,0.3513,0.7819,0.7797v3.2004c0,0.4297-0.3511,0.7816-0.7819,0.7816
		h-2.8109c-0.4309,0-0.7832-0.3519-0.7832-0.7816v-3.2004C81.1339,67.368,81.4862,67.0168,81.9171,67.0168"/>
	<path class="st7" d="M76.2413,67.0168h2.8121c0.4296,0,0.7818,0.3513,0.7818,0.7797v3.2004c0,0.4297-0.3522,0.7816-0.7818,0.7816
		h-2.8121c-0.4284,0-0.7807-0.3519-0.7807-0.7816v-3.2004C75.4606,67.368,75.8129,67.0168,76.2413,67.0168"/>
	<path class="st7" d="M70.5679,67.0168h2.8109c0.4296,0,0.7807,0.3513,0.7807,0.7797v3.2004c0,0.4297-0.3511,0.7816-0.7807,0.7816
		h-2.8109c-0.4309,0-0.7831-0.3519-0.7831-0.7816v-3.2004C69.7848,67.368,70.137,67.0168,70.5679,67.0168"/>
	<path class="st7" d="M64.8921,67.0168h2.8109c0.4309,0,0.7831,0.3513,0.7831,0.7797v3.2004c0,0.4297-0.3522,0.7816-0.7831,0.7816
		h-2.8109c-0.4284,0-0.7807-0.3519-0.7807-0.7816v-3.2004C64.1114,67.368,64.4638,67.0168,64.8921,67.0168"/>
	<path class="st7" d="M59.2187,67.0168h2.8108c0.4296,0,0.7807,0.3513,0.7807,0.7797v3.2004c0,0.4297-0.3511,0.7816-0.7807,0.7816
		h-2.8108c-0.4309,0-0.7831-0.3519-0.7831-0.7816v-3.2004C58.4356,67.368,58.7878,67.0168,59.2187,67.0168"/>
	<path class="st7" d="M53.5429,67.0168h2.8109c0.4309,0,0.7819,0.3513,0.7819,0.7797v3.2004c0,0.4297-0.3511,0.7816-0.7819,0.7816
		h-2.8109c-0.4296,0-0.7807-0.3519-0.7807-0.7816v-3.2004C52.7622,67.368,53.1133,67.0168,53.5429,67.0168"/>
	<path class="st7" d="M47.8683,67.0168h2.8121c0.4285,0,0.7807,0.3513,0.7807,0.7797v3.2004c0,0.4297-0.3522,0.7816-0.7807,0.7816
		h-2.8121c-0.4296,0-0.7818-0.3519-0.7818-0.7816v-3.2004C47.0865,67.368,47.4387,67.0168,47.8683,67.0168"/>
	<path class="st7" d="M42.1938,67.0168h2.8109c0.4309,0,0.7819,0.3513,0.7819,0.7797v3.2004c0,0.4297-0.3511,0.7816-0.7819,0.7816
		h-2.8109c-0.4309,0-0.7819-0.3519-0.7819-0.7816v-3.2004C41.4118,67.368,41.7629,67.0168,42.1938,67.0168"/>
	<path class="st7" d="M36.3326,67.0168h2.8649c0.4382,0,0.7967,0.3574,0.7967,0.795v3.171c0,0.437-0.3585,0.7957-0.7967,0.7957
		h-2.8649c-0.437,0-0.7954-0.3587-0.7954-0.7957v-3.171C35.5372,67.3742,35.8955,67.0168,36.3326,67.0168"/>
	<path class="st7" d="M36.389,72.6017h5.8931c0.4688,0,0.8518,0.3819,0.8518,0.8503v3.0607c0,0.467-0.383,0.8502-0.8518,0.8502
		H36.389c-0.4688,0-0.8518-0.3831-0.8518-0.8502V73.452C35.5372,72.9836,35.9202,72.6017,36.389,72.6017"/>
	<path class="st7" d="M36.389,78.1861h7.0076c0.4677,0,0.8518,0.383,0.8518,0.8514v3.0601c0,0.4676-0.3841,0.8508-0.8518,0.8508
		H36.389c-0.4688,0-0.8518-0.3832-0.8518-0.8508v-3.0601C35.5372,78.5691,35.9202,78.1861,36.389,78.1861"/>
	<path class="st7" d="M36.389,83.7716h10.0469c0.4677,0,0.8518,0.3832,0.8518,0.8502v3.06c0,0.4684-0.3841,0.8514-0.8518,0.8514
		H36.389c-0.4688,0-0.8518-0.383-0.8518-0.8514v-3.06C35.5372,84.1548,35.9202,83.7716,36.389,83.7716"/>
	<path class="st7" d="M36.389,89.3572h4.171c0.4688,0,0.8518,0.3819,0.8518,0.8501v3.0601c0,0.4671-0.383,0.8503-0.8518,0.8503
		h-4.171c-0.4688,0-0.8518-0.3832-0.8518-0.8503v-3.0601C35.5372,89.7391,35.9202,89.3572,36.389,89.3572"/>
	<path class="st7" d="M44.6793,72.6017h3.0122c0.4603,0,0.8371,0.3764,0.8371,0.8355v3.0908c0,0.4585-0.3768,0.8348-0.8371,0.8348
		h-3.0122c-0.459,0-0.8359-0.3764-0.8359-0.8348v-3.0908C43.8435,72.978,44.2203,72.6017,44.6793,72.6017"/>
	<path class="st7" d="M50.4619,72.6017h3.011c0.459,0,0.836,0.3764,0.836,0.8355v3.0908c0,0.4585-0.377,0.8348-0.836,0.8348h-3.011
		c-0.4603,0-0.8384-0.3764-0.8384-0.8348v-3.0908C49.6236,72.978,50.0017,72.6017,50.4619,72.6017"/>
	<path class="st7" d="M56.2433,72.6017h3.0097c0.4604,0,0.8373,0.3764,0.8373,0.8355v3.0908c0,0.4585-0.3768,0.8348-0.8373,0.8348
		h-3.0097c-0.4603,0-0.8371-0.3764-0.8371-0.8348v-3.0908C55.4062,72.978,55.783,72.6017,56.2433,72.6017"/>
	<path class="st7" d="M62.0234,72.6017h3.0111c0.4614,0,0.8382,0.3764,0.8382,0.8355v3.0908c0,0.4585-0.3768,0.8348-0.8382,0.8348
		h-3.0111c-0.459,0-0.8359-0.3764-0.8359-0.8348v-3.0908C61.1876,72.978,61.5644,72.6017,62.0234,72.6017"/>
	<path class="st7" d="M67.8049,72.6017h3.0121c0.4592,0,0.836,0.3764,0.836,0.8355v3.0908c0,0.4585-0.3768,0.8348-0.836,0.8348
		h-3.0121c-0.4604,0-0.8372-0.3764-0.8372-0.8348v-3.0908C66.9677,72.978,67.3445,72.6017,67.8049,72.6017"/>
	<path class="st7" d="M73.5863,72.6017h3.011c0.4603,0,0.8371,0.3764,0.8371,0.8355v3.0908c0,0.4585-0.3768,0.8348-0.8371,0.8348
		h-3.011c-0.4603,0-0.8371-0.3764-0.8371-0.8348v-3.0908C72.7492,72.978,73.126,72.6017,73.5863,72.6017"/>
	<path class="st7" d="M79.3676,72.6017h3.011c0.4603,0,0.8371,0.3764,0.8371,0.8355v3.0908c0,0.4585-0.3768,0.8348-0.8371,0.8348
		h-3.011c-0.4603,0-0.836-0.3764-0.836-0.8348v-3.0908C78.5317,72.978,78.9074,72.6017,79.3676,72.6017"/>
	<path class="st7" d="M85.149,72.6017h3.011c0.4603,0,0.8359,0.3764,0.8359,0.8355v3.0908c0,0.4585-0.3756,0.8348-0.8359,0.8348
		h-3.011c-0.4603,0-0.8371-0.3764-0.8371-0.8348v-3.0908C84.3119,72.978,84.6887,72.6017,85.149,72.6017"/>
	<path class="st7" d="M90.9291,72.6017h3.0122c0.4603,0,0.8371,0.3764,0.8371,0.8355v3.0908c0,0.4585-0.3768,0.8348-0.8371,0.8348
		h-3.0122c-0.459,0-0.8359-0.3764-0.8359-0.8348v-3.0908C90.0933,72.978,90.4701,72.6017,90.9291,72.6017"/>
	<path class="st7" d="M96.7117,72.6017h3.011c0.459,0,0.836,0.3764,0.836,0.8355v3.0908c0,0.4585-0.377,0.8348-0.836,0.8348h-3.011
		c-0.4615,0-0.8384-0.3764-0.8384-0.8348v-3.0908C95.8734,72.978,96.2502,72.6017,96.7117,72.6017"/>
	<path class="st7" d="M102.4931,72.6017h3.0097c0.4604,0,0.8372,0.3764,0.8372,0.8355v3.0908c0,0.4585-0.3768,0.8348-0.8372,0.8348
		h-3.0097c-0.4615,0-0.8371-0.3764-0.8371-0.8348v-3.0908C101.656,72.978,102.0316,72.6017,102.4931,72.6017"/>
	<path class="st7" d="M108.2732,72.6017h3.0111c0.4614,0,0.8371,0.3764,0.8371,0.8355v3.0908c0,0.4585-0.3757,0.8348-0.8371,0.8348
		h-3.0111c-0.459,0-0.8359-0.3764-0.8359-0.8348v-3.0908C107.4373,72.978,107.8142,72.6017,108.2732,72.6017"/>
	<path class="st7" d="M46.2886,78.1861h3.0122c0.459,0,0.8359,0.3764,0.8359,0.8367v3.0888c0,0.4604-0.3768,0.8367-0.8359,0.8367
		h-3.0122c-0.4603,0-0.8371-0.3764-0.8371-0.8367v-3.0888C45.4515,78.5625,45.8283,78.1861,46.2886,78.1861"/>
	<path class="st7" d="M52.0699,78.1861h3.011c0.4603,0,0.8371,0.3764,0.8371,0.8367v3.0888c0,0.4604-0.3768,0.8367-0.8371,0.8367
		h-3.011c-0.4603,0-0.8371-0.3764-0.8371-0.8367v-3.0888C51.2328,78.5625,51.6096,78.1861,52.0699,78.1861"/>
	<path class="st7" d="M57.8513,78.1861h3.011c0.4592,0,0.836,0.3764,0.836,0.8367v3.0888c0,0.4604-0.3768,0.8367-0.836,0.8367
		h-3.011c-0.4615,0-0.8371-0.3764-0.8371-0.8367v-3.0888C57.0142,78.5625,57.3898,78.1861,57.8513,78.1861"/>
	<path class="st7" d="M63.6327,78.1861h3.0098c0.4614,0,0.8383,0.3764,0.8383,0.8367v3.0888c0,0.4604-0.3768,0.8367-0.8383,0.8367
		h-3.0098c-0.4603,0-0.8371-0.3764-0.8371-0.8367v-3.0888C62.7956,78.5625,63.1724,78.1861,63.6327,78.1861"/>
	<path class="st7" d="M69.4129,78.1861h3.0121c0.4603,0,0.8372,0.3764,0.8372,0.8367v3.0888c0,0.4604-0.377,0.8367-0.8372,0.8367
		h-3.0121c-0.4592,0-0.836-0.3764-0.836-0.8367v-3.0888C68.5769,78.5625,68.9538,78.1861,69.4129,78.1861"/>
	<path class="st7" d="M75.1954,78.1861h3.011c0.4592,0,0.836,0.3764,0.836,0.8367v3.0888c0,0.4604-0.3768,0.8367-0.836,0.8367
		h-3.011c-0.4614,0-0.8384-0.3764-0.8384-0.8367v-3.0888C74.357,78.5625,74.734,78.1861,75.1954,78.1861"/>
	<path class="st7" d="M80.9756,78.1861h3.011c0.4603,0,0.8371,0.3764,0.8371,0.8367v3.0888c0,0.4604-0.3768,0.8367-0.8371,0.8367
		h-3.011c-0.4603,0-0.836-0.3764-0.836-0.8367v-3.0888C80.1397,78.5625,80.5154,78.1861,80.9756,78.1861"/>
	<path class="st7" d="M86.757,78.1861h3.011c0.4603,0,0.8359,0.3764,0.8359,0.8367v3.0888c0,0.4604-0.3756,0.8367-0.8359,0.8367
		h-3.011c-0.4603,0-0.8371-0.3764-0.8371-0.8367v-3.0888C85.9199,78.5625,86.2967,78.1861,86.757,78.1861"/>
	<path class="st7" d="M92.5384,78.1861h3.011c0.4603,0,0.8371,0.3764,0.8371,0.8367v3.0888c0,0.4604-0.3768,0.8367-0.8371,0.8367
		h-3.011c-0.4603,0-0.8371-0.3764-0.8371-0.8367v-3.0888C91.7013,78.5625,92.0781,78.1861,92.5384,78.1861"/>
	<path class="st7" d="M98.3197,78.1861h3.011c0.4603,0,0.8371,0.3764,0.8371,0.8367v3.0888c0,0.4604-0.3768,0.8367-0.8371,0.8367
		h-3.011c-0.4603,0-0.8371-0.3764-0.8371-0.8367v-3.0888C97.4826,78.5625,97.8595,78.1861,98.3197,78.1861"/>
	<path class="st7" d="M104.1011,78.1861h3.011c0.4592,0,0.836,0.3764,0.836,0.8367v3.0888c0,0.4604-0.3768,0.8367-0.836,0.8367
		h-3.011c-0.4615,0-0.8371-0.3764-0.8371-0.8367v-3.0888C103.264,78.5625,103.6396,78.1861,104.1011,78.1861"/>
	<path class="st7" d="M49.3155,83.7716h3.011c0.4603,0,0.8359,0.3757,0.8359,0.8361v3.0894c0,0.4592-0.3756,0.8361-0.8359,0.8361
		h-3.011c-0.4603,0-0.8371-0.3769-0.8371-0.8361v-3.0894C48.4784,84.1474,48.8552,83.7716,49.3155,83.7716"/>
	<path class="st8" d="M55.0956,83.7716h3.0122c0.4603,0,0.8371,0.3757,0.8371,0.8361v3.0894c0,0.4592-0.3768,0.8361-0.8371,0.8361
		h-3.0122c-0.459,0-0.8359-0.3769-0.8359-0.8361v-3.0894C54.2598,84.1474,54.6366,83.7716,55.0956,83.7716"/>
	<path class="st7" d="M60.877,83.7716h3.0122c0.4592,0,0.8371,0.3757,0.8371,0.8361v3.0894c0,0.4592-0.378,0.8361-0.8371,0.8361
		H60.877c-0.459,0-0.8371-0.3769-0.8371-0.8361v-3.0894C60.0398,84.1474,60.4179,83.7716,60.877,83.7716"/>
	<path class="st7" d="M66.6596,83.7716h3.011c0.4592,0,0.836,0.3757,0.836,0.8361v3.0894c0,0.4592-0.3768,0.8361-0.836,0.8361
		h-3.011c-0.4615,0-0.8371-0.3769-0.8371-0.8361v-3.0894C65.8225,84.1474,66.1981,83.7716,66.6596,83.7716"/>
	<path class="st7" d="M72.4398,83.7716h3.011c0.4615,0,0.8371,0.3757,0.8371,0.8361v3.0894c0,0.4592-0.3756,0.8361-0.8371,0.8361
		h-3.011c-0.4592,0-0.836-0.3769-0.836-0.8361v-3.0894C71.6039,84.1474,71.9807,83.7716,72.4398,83.7716"/>
	<path class="st7" d="M78.2212,83.7716h3.011c0.4615,0,0.8371,0.3757,0.8371,0.8361v3.0894c0,0.4592-0.3756,0.8361-0.8371,0.8361
		h-3.011c-0.4592,0-0.8371-0.3769-0.8371-0.8361v-3.0894C77.3841,84.1474,77.762,83.7716,78.2212,83.7716"/>
	<path class="st7" d="M84.0026,83.7716h3.011c0.4603,0,0.8371,0.3757,0.8371,0.8361v3.0894c0,0.4592-0.3768,0.8361-0.8371,0.8361
		h-3.011c-0.4603,0-0.8371-0.3769-0.8371-0.8361v-3.0894C83.1655,84.1474,83.5423,83.7716,84.0026,83.7716"/>
	<path class="st7" d="M89.7839,83.7716h3.011c0.4603,0,0.8371,0.3757,0.8371,0.8361v3.0894c0,0.4592-0.3768,0.8361-0.8371,0.8361
		h-3.011c-0.4603,0-0.8371-0.3769-0.8371-0.8361v-3.0894C88.9468,84.1474,89.3237,83.7716,89.7839,83.7716"/>
	<path class="st7" d="M95.5653,83.7716h3.011c0.4603,0,0.8359,0.3757,0.8359,0.8361v3.0894c0,0.4592-0.3756,0.8361-0.8359,0.8361
		h-3.011c-0.4603,0-0.8371-0.3769-0.8371-0.8361v-3.0894C94.7282,84.1474,95.105,83.7716,95.5653,83.7716"/>
	<path class="st7" d="M101.3467,83.7716h3.0097c0.4615,0,0.8384,0.3757,0.8384,0.8361v3.0894c0,0.4592-0.3768,0.8361-0.8384,0.8361
		h-3.0097c-0.4603,0-0.8371-0.3769-0.8371-0.8361v-3.0894C100.5096,84.1474,100.8864,83.7716,101.3467,83.7716"/>
	<path class="st7" d="M107.1427,83.7716h5.4451c0.4676,0,0.8506,0.3832,0.8506,0.8502v3.06c0,0.4684-0.383,0.8514-0.8506,0.8514
		h-5.4451c-0.4688,0-0.8531-0.383-0.8531-0.8514v-3.06C106.2897,84.1548,106.6739,83.7716,107.1427,83.7716"/>
	<path class="st7" d="M43.4396,89.3572h3.0122c0.459,0,0.8359,0.3757,0.8359,0.8348v3.0907c0,0.4592-0.3768,0.835-0.8359,0.835
		h-3.0122c-0.4603,0-0.8371-0.3758-0.8371-0.835V90.192C42.6025,89.7329,42.9793,89.3572,43.4396,89.3572"/>
	<path class="st7" d="M49.221,89.3572h3.011c0.4603,0,0.8371,0.3757,0.8371,0.8348v3.0907c0,0.4592-0.3768,0.835-0.8371,0.835
		h-3.011c-0.4603,0-0.8359-0.3758-0.8359-0.835V90.192C48.3851,89.7329,48.7607,89.3572,49.221,89.3572"/>
	<path class="st8" d="M55.0023,89.3572h3.011c0.4603,0,0.8371,0.3757,0.8371,0.8348v3.0907c0,0.4592-0.3768,0.835-0.8371,0.835
		h-3.011c-0.4603,0-0.8371-0.3758-0.8371-0.835V90.192C54.1652,89.7329,54.542,89.3572,55.0023,89.3572"/>
	<path class="st7" d="M60.7837,89.3572h3.011c0.4603,0,0.8371,0.3757,0.8371,0.8348v3.0907c0,0.4592-0.3768,0.835-0.8371,0.835
		h-3.011c-0.4603,0-0.8371-0.3758-0.8371-0.835V90.192C59.9466,89.7329,60.3234,89.3572,60.7837,89.3572"/>
	<path class="st7" d="M66.5651,89.3572h3.011c0.4603,0,0.8372,0.3757,0.8372,0.8348v3.0907c0,0.4592-0.3769,0.835-0.8372,0.835
		h-3.011c-0.4603,0-0.8371-0.3758-0.8371-0.835V90.192C65.728,89.7329,66.1048,89.3572,66.5651,89.3572"/>
	<path class="st7" d="M72.3464,89.3572h3.011c0.4592,0,0.836,0.3757,0.836,0.8348v3.0907c0,0.4592-0.3768,0.835-0.836,0.835h-3.011
		c-0.4614,0-0.8371-0.3758-0.8371-0.835V90.192C71.5093,89.7329,71.885,89.3572,72.3464,89.3572"/>
	<path class="st7" d="M78.1278,89.3572h3.0098c0.4615,0,0.8371,0.3757,0.8371,0.8348v3.0907c0,0.4592-0.3756,0.835-0.8371,0.835
		h-3.0098c-0.4603,0-0.8371-0.3758-0.8371-0.835V90.192C77.2907,89.7329,77.6675,89.3572,78.1278,89.3572"/>
	<path class="st7" d="M83.9081,89.3572h3.011c0.4615,0,0.8384,0.3757,0.8384,0.8348v3.0907c0,0.4592-0.3768,0.835-0.8384,0.835
		h-3.011c-0.4603,0-0.8371-0.3758-0.8371-0.835V90.192C83.0709,89.7329,83.4478,89.3572,83.9081,89.3572"/>
	<path class="st7" d="M89.6894,89.3572h3.011c0.4603,0,0.8371,0.3757,0.8371,0.8348v3.0907c0,0.4592-0.3768,0.835-0.8371,0.835
		h-3.011c-0.4603,0-0.8371-0.3758-0.8371-0.835V90.192C88.8523,89.7329,89.2291,89.3572,89.6894,89.3572"/>
	<path class="st7" d="M95.472,89.3572h3.0097c0.4603,0,0.8371,0.3757,0.8371,0.8348v3.0907c0,0.4592-0.3768,0.835-0.8371,0.835
		H95.472c-0.4615,0-0.8371-0.3758-0.8371-0.835V90.192C94.6349,89.7329,95.0105,89.3572,95.472,89.3572"/>
	<path class="st7" d="M101.2669,89.3572h5.4451c0.4676,0,0.8518,0.3819,0.8518,0.8501v3.0601c0,0.4671-0.3842,0.8503-0.8518,0.8503
		h-5.4451c-0.4688,0-0.8518-0.3832-0.8518-0.8503v-3.0601C100.415,89.7391,100.798,89.3572,101.2669,89.3572"/>
	<path class="st7" d="M109.7769,89.3572h2.8649c0.4383,0,0.7966,0.3574,0.7966,0.795v3.1704c0,0.4376-0.3584,0.7951-0.7966,0.7951
		h-2.8649c-0.4369,0-0.7966-0.3574-0.7966-0.7951v-3.1704C108.9802,89.7146,109.34,89.3572,109.7769,89.3572"/>
	<path class="st7" d="M64.5938,98.1242h30.0411c0.459,0,0.8346,0.3739,0.8346,0.8318v14.4267c0,0.4578-0.3756,0.8318-0.8346,0.8318
		H64.5938c-0.4579,0-0.8335-0.374-0.8335-0.8318V98.956C63.7604,98.498,64.1359,98.1242,64.5938,98.1242"/>
	<polygon class="st9" points="24.7367,38.6457 127.1554,50.2999 134.2331,38.6457 	"/>
	
		<rect x="41.7505" y="117.7429" transform="matrix(-1 -0.0021 0.0021 -1 98.1171 256.3473)" class="st10" width="14.8905" height="20.7565"/>
	<path class="st7" d="M94.4695,118.5398H81.1813c-0.5523,0-1-0.4477-1-1v-1.3414c0-0.5523,0.4477-1,1-1h13.2882
		c0.5523,0,1,0.4477,1,1v1.3414C95.4695,118.0921,95.0218,118.5398,94.4695,118.5398z"/>
	<path class="st7" d="M78.0486,118.5398H64.7604c-0.5523,0-1-0.4477-1-1v-1.3414c0-0.5523,0.4477-1,1-1h13.2882
		c0.5523,0,1,0.4477,1,1v1.3414C79.0486,118.0921,78.6009,118.5398,78.0486,118.5398z"/>
	<path class="st10" d="M57.7396,103.3021c-0.0356,1.7636-0.0331,3.9048-0.0539,6.4346l5.0081-7.6906
		c2.1185-3.2538,5.2032-1.7017,6.3926-0.2237l-9.9069,18.0011c-1.381,2.5089-5.5003,3.752-9.4663,3.8545
		c-8.1994,0.212-13.1977-5.1332-13.3266-16.3687l-1.8008-8.6315c-0.729-3.6442,4.4337-4.6348,5.1407-0.9483l0.6947,3.6252
		c0.1473-0.1888,0.3744-0.3757,0.5929-0.5357l-0.6174-7.2572c-0.356-3.7398,4.8644-3.7619,5.191-0.6222l0.6236,6.0091
		c0.151-0.0336,0.4652-0.0398,0.578-0.0428l-0.1644-7.6766c-0.0737-3.4622,5.164-3.5259,5.2266-0.0889l0.1865,8.8945
		c0.2357,0.1225,0.469,0.2537,0.6947,0.3947l1.4717-17.7815c0.2799-3.3838,5.5003-3.0754,5.2082,0.4517L57.7396,103.3021z"/>
	
		<rect x="40.0578" y="126.6807" transform="matrix(-1 -0.0022 0.0022 -1 98.1032 259.1065)" class="st7" width="18.2697" height="5.6383"/>
	
		<linearGradient id="SVGID_3_" gradientUnits="userSpaceOnUse" x1="309.9823" y1="6766.8394" x2="331.927" y2="6766.8394" gradientTransform="matrix(-1 0 0 -1 370.156 6908.2256)">
		<stop  offset="0" style="stop-color:#FFC900"/>
		<stop  offset="1" style="stop-color:#F9D953"/>
	</linearGradient>
	<polygon class="st11" points="60.1737,150.4784 60.1431,132.3419 38.229,132.2942 38.2597,150.4784 	"/>
	
		<rect x="98.734" y="117.8661" transform="matrix(1 0.0021 -0.0021 1 0.2749 -0.2271)" class="st10" width="14.8904" height="20.7559"/>
	<path class="st10" d="M97.7428,103.3886c0.0283,1.7647,0.0172,3.9041,0.027,6.4344l-4.835-7.2909
		c-2.1456-3.2366-5.4929-1.9597-6.4957-0.3898l9.7927,17.7607c1.3821,2.5084,5.4831,3.7766,9.449,3.8956
		c8.1983,0.2476,13.2199-5.075,13.3979-16.3105l3.4885-17.0394c0.7451-3.6418-4.4139-4.6544-5.1357-0.9716l-2.3616,12.0397
		c-0.1461-0.19-0.3744-0.3781-0.5892-0.5395l1.6129-16.1725c0.3719-3.7386-4.8472-3.7828-5.1872-0.6443l-1.6154,14.9245
		c-0.1522-0.0349-0.4652-0.0423-0.5781-0.0453l0.3866-17.2122c0.0773-3.4603-5.1505-3.5468-5.2266-0.1097l-0.4137,18.4289
		c-0.2382,0.1201-0.4689,0.2513-0.6959,0.3911l-1.3957-17.7871c-0.2651-3.3862-5.4856-3.0998-5.2093,0.4285L97.7428,103.3886z"/>
	
		<rect x="97.0413" y="126.8038" transform="matrix(1 0.0022 -0.0022 1 0.2826 -0.231)" class="st7" width="18.2709" height="5.6383"/>
	
		<linearGradient id="SVGID_4_" gradientUnits="userSpaceOnUse" x1="253.029" y1="6766.7778" x2="274.9431" y2="6766.7778" gradientTransform="matrix(-1 0 0 -1 370.156 6908.2256)">
		<stop  offset="0" style="stop-color:#FFC900"/>
		<stop  offset="1" style="stop-color:#F9D953"/>
	</linearGradient>
	<polygon class="st12" points="95.213,150.4784 95.213,132.4179 117.127,132.4651 117.127,150.4784 	"/>
	<polygon class="st13" points="60.1737,150.4784 60.1431,132.3419 49.1867,132.318 49.2173,150.4784 	"/>
	<polygon class="st13" points="117.127,150.4784 117.127,132.4651 106.1694,132.4412 106.1694,150.4784 	"/>
</g>
</svg>
