<?xml version="1.0" encoding="utf-8"?>
<!-- Generator: Adobe Illustrator 19.1.0, SVG Export Plug-In . SVG Version: 6.00 Build 0)  -->
<svg version="1.1" id="Слой_1" xmlns="http://www.w3.org/2000/svg" xmlns:xlink="http://www.w3.org/1999/xlink" x="0px" y="0px"
	 viewBox="0 0 146 180" style="enable-background:new 0 0 146 180;" xml:space="preserve">
<style type="text/css">
	.st0{fill:#D1DCE0;}
	.st1{fill-rule:evenodd;clip-rule:evenodd;fill:#FFFFFF;}
	.st2{fill-rule:evenodd;clip-rule:evenodd;fill:#E5E5E5;}
	.st3{fill-rule:evenodd;clip-rule:evenodd;fill:#AFAFAF;}
</style>
<polygon class="st0" points="0,0 0,180 90.4821,180 146,90 90.4821,0 "/>
<g>
	<g>
		<polygon class="st1" points="17.317,32.9055 89.5192,32.9055 101.6346,44.7077 101.6346,66.615 101.6346,149.0757 
			17.317,149.0757 		"/>
		<polygon class="st2" points="89.5192,44.7077 101.6346,44.7077 89.5192,32.9055 		"/>
	</g>
	<rect x="40.0548" y="46.9038" class="st3" width="39.3359" height="2.1782"/>
	<rect x="26.6463" y="53.2935" class="st3" width="66.1526" height="2.1782"/>
	<rect x="26.6463" y="57.7658" class="st3" width="66.1526" height="2.1782"/>
	<rect x="26.6463" y="62.2384" class="st3" width="66.1526" height="2.177"/>
	<rect x="26.6463" y="66.7101" class="st3" width="66.1526" height="2.1782"/>
	<rect x="26.6463" y="71.1827" class="st3" width="66.1526" height="2.1782"/>
	<rect x="26.6463" y="75.6561" class="st3" width="66.1526" height="2.1782"/>
	<rect x="26.6463" y="80.128" class="st3" width="66.1526" height="2.1782"/>
	<rect x="26.6463" y="84.5997" class="st3" width="66.1526" height="2.1782"/>
	<rect x="26.6463" y="89.073" class="st3" width="33.0763" height="2.177"/>
	<rect x="26.6463" y="103.9259" class="st3" width="30.3602" height="2.1782"/>
	<rect x="26.6463" y="108.3978" class="st3" width="30.3602" height="2.1782"/>
	<rect x="26.6463" y="112.8712" class="st3" width="30.3602" height="2.1782"/>
	<rect x="26.6463" y="117.3435" class="st3" width="30.3602" height="2.1782"/>
	<rect x="26.6463" y="121.8148" class="st3" width="30.3602" height="2.1782"/>
	<rect x="26.6463" y="126.2871" class="st3" width="30.3602" height="2.1782"/>
	<rect x="26.6463" y="130.7604" class="st3" width="30.3602" height="2.1782"/>
	<rect x="26.6463" y="135.2327" class="st3" width="15.1798" height="2.1782"/>
	<rect x="62.4394" y="103.9259" class="st3" width="30.3595" height="2.1782"/>
	<rect x="62.4394" y="108.3978" class="st3" width="30.3608" height="2.1782"/>
	<rect x="62.4394" y="112.8712" class="st3" width="30.3595" height="2.1782"/>
	<rect x="62.4394" y="117.3435" class="st3" width="30.3595" height="2.1782"/>
	<rect x="62.4394" y="121.8148" class="st3" width="30.3595" height="2.1782"/>
	<rect x="62.4394" y="126.2871" class="st3" width="30.3595" height="2.1782"/>
	<rect x="62.4394" y="130.7604" class="st3" width="30.3595" height="2.1782"/>
	<rect x="62.4394" y="135.2327" class="st3" width="21.3686" height="2.1782"/>
</g>
</svg>
